<?xml version="1.0" encoding="utf-8"?>
<!-- Generator: Adobe Illustrator 18.1.1, SVG Export Plug-In . SVG Version: 6.00 Build 0)  -->
<!DOCTYPE svg PUBLIC "-//W3C//DTD SVG 1.1//EN" "http://www.w3.org/Graphics/SVG/1.1/DTD/svg11.dtd">
<svg version="1.1" id="Layer_1" xmlns="http://www.w3.org/2000/svg" xmlns:xlink="http://www.w3.org/1999/xlink" x="0px" y="0px"
	 viewBox="0 0 450 450" enable-background="new 0 0 450 450" xml:space="preserve">
<path d="M426.7,214.4c-9.4,7.3-18.3-3.1-22.2-1.7c-3.8,1.5-2.3,10.3,2.8,17.5c5.2,7.2-5.3,14.1-5.7,13.9c-0.4-0.1-17.7,17.3-35-25.2
	C349.4,176.5,322,94.2,198.2,97.7C85.8,100.8,43.8,152.8,36.2,210c-3.7,17.3-7,37.4-17.1,45.2c-0.3,0.3-0.1,0.8,0.4,0.7
	c5.8-1.7,11.1-4.1,16.1-7.2c4.4,55.8,27.8,105.7,27.8,105.7h55.4c0,0,0-51.7,26.2-51.7c26.2,0,9.5-1.9,34.3,0
	c24.8,1.9,28.8,49.7,28.8,49.7l58.9-0.6c0,0,1.8-22,1.1-43.6c-0.7-21.6,22.4-37.3,24.9-39.4c2.5-2.1,28.7-12.9,53.1,3.7
	c24.3,16.6,51.3,21.1,62.3,9.8c7-7.2,12.6-19.8,15.7-27.9c1.4-3.7,2.3-7.6,2.8-11.6c1.1-7.8,6.8-15.5,9.2-19
	C438.9,219.7,436.1,207.1,426.7,214.4z"/>
<path fill="#ED6F82" d="M426.7,214.4c-9.4,7.3-18.3-3.1-22.2-1.7c-3.8,1.5-2.3,10.3,2.8,17.5c5.2,7.2-5.3,14.1-5.7,13.9
	c-0.4-0.1-17.7,17.3-35-25.2C349.4,176.5,322,94.2,198.2,97.7C85.8,100.8,43.8,152.8,36.2,210c-3.7,17.3-7,37.4-17.1,45.2
	c-0.3,0.3-0.1,0.8,0.4,0.7c5.8-1.7,11.1-4.1,16.1-7.2c4.4,55.8,27.8,105.7,27.8,105.7h55.4c0,0,0-51.7,26.2-51.7
	c26.2,0,9.5-1.9,34.3,0c24.8,1.9,28.8,49.7,28.8,49.7l58.9-0.6c0,0,1.8-22,1.1-43.6c-0.7-21.6,22.4-37.3,24.9-39.4
	c2.5-2.1,28.7-12.9,53.1,3.7c24.3,16.6,51.3,21.1,62.3,9.8c7-7.2,12.6-19.8,15.7-27.9c1.4-3.7,2.3-7.6,2.8-11.6
	c1.1-7.8,6.8-15.5,9.2-19C438.9,219.7,436.1,207.1,426.7,214.4z M322.5,259.1c-0.2,0.7-1.1,1.1-1.8,0.9c-8.3-3-15.8-6.7-21.2-10.7
	c-3.9-2.9-6.4-5.7-7.4-8.3c-0.3-0.9-1.4-1.3-2.2-0.9c-1.5,0.6-3.1,1-4.7,1c-0.6,0-1.2-0.1-1.8-0.2c-0.8-0.1-1.4-1-1.1-1.8
	c0.2-0.7,0.9-1,1.6-0.9c5.1,0.9,10.7-3.2,13.4-9.8c0.3-0.7,1-1,1.7-0.8c0.8,0.3,1.1,1.1,0.8,1.9c-1.3,3.1-3.1,5.7-5.3,7.6
	c-0.6,0.5-0.7,1.3-0.4,2c1.2,2.5,3.8,5.7,7,8c5.1,3.8,12.3,7.4,20.4,10.3C322.4,257.6,322.8,258.4,322.5,259.1z M337.5,212.4
	c-5.4,0-9.7-4.9-9.7-11c0-6.1,4.4-11,9.7-11c5.4,0,9.7,4.9,9.7,11C347.2,207.5,342.9,212.4,337.5,212.4z"/>
<path fill="#F197A7" d="M152.4,176.7c-2.5-11.2,2-22.8,11.4-29.3c20.3-14,57.8-32.2,103.7-19.4c69.9,19.5-121.4,200.9-113,118.2
	C157.9,212.6,155.4,190.1,152.4,176.7z"/>
</svg>
