<?xml version="1.0" encoding="utf-8"?>
<!-- Generator: Adobe Illustrator 18.1.1, SVG Export Plug-In . SVG Version: 6.00 Build 0)  -->
<!DOCTYPE svg PUBLIC "-//W3C//DTD SVG 1.1//EN" "http://www.w3.org/Graphics/SVG/1.1/DTD/svg11.dtd">
<svg version="1.1" id="Layer_1" xmlns="http://www.w3.org/2000/svg" xmlns:xlink="http://www.w3.org/1999/xlink" x="0px" y="0px"
	 viewBox="0 0 420 660" enable-background="new 0 0 420 660" xml:space="preserve">
<path d="M399.1,512c-8.9,6.9-17.3-3-20.9-1.6c-3.6,1.4-2.2,9.7,2.7,16.5c4.9,6.8-5,13.3-5.4,13.1c-0.4-0.1-16.7,16.3-33-23.7
	c-16.2-40-42-117.6-158.7-114.3c-106,3-145.5,52-152.7,105.9c-3.5,16.3-6.6,35.3-16.1,42.6c-0.3,0.2-0.1,0.8,0.3,0.6
	c5.4-1.6,10.5-3.9,15.1-6.8c4.1,52.5,26.2,99.6,26.2,99.6h52.2c0,0,0-48.7,24.7-48.7c24.7,0,9-1.7,32.3,0
	c23.4,1.7,27.1,46.8,27.1,46.8l55.5-0.6c0,0,1.7-20.7,1.1-41.1c-0.6-20.4,21.1-35.2,23.4-37.2c2.3-2,27.1-12.1,50,3.5
	c22.9,15.6,48.4,19.8,58.7,9.3c6.6-6.8,11.9-18.7,14.8-26.3c1.3-3.5,2.1-7.2,2.7-10.9c1-7.3,6.4-14.6,8.7-17.9
	C410.6,517,408,505.2,399.1,512z"/>
<path fill="#ED6F82" d="M399.1,243.9c-8.9,6.9-17.3-3-20.9-1.6c-3.6,1.4-2.2,9.7,2.7,16.5c4.9,6.8-5,13.3-5.4,13.1
	s-16.7,16.3-33-23.7c-16.2-40-42-117.6-158.7-114.3c-106,3-145.5,52-152.7,105.9c-3.5,16.3-6.6,35.3-16.1,42.6
	c-0.3,0.2-0.1,0.8,0.3,0.6c5.4-1.6,10.5-3.9,15.1-6.8c4.1,52.5,26.2,99.6,26.2,99.6h52.2c0,0,0-48.7,24.7-48.7c24.7,0,9-1.7,32.3,0
	c23.4,1.7,27.1,46.8,27.1,46.8l55.5-0.6c0,0,1.7-20.7,1.1-41.1c-0.6-20.4,21.1-35.2,23.4-37.2c2.3-2,27.1-12.1,50,3.5
	c22.9,15.6,48.4,19.8,58.7,9.3c6.6-6.8,11.9-18.7,14.8-26.3c1.3-3.5,2.1-7.2,2.7-10.9c1-7.3,6.4-14.6,8.7-17.9
	C410.6,248.9,408,237,399.1,243.9z M301,286c-0.2,0.7-1,1.1-1.7,0.8c-7.9-2.8-14.9-6.3-19.9-10.1c-3.7-2.8-6-5.4-6.9-7.8
	c-0.3-0.8-1.3-1.2-2.1-0.9c-1.5,0.6-3,0.9-4.4,0.9c-0.6,0-1.2,0-1.7-0.1c-0.8-0.1-1.3-1-1-1.7c0.2-0.6,0.8-1,1.5-0.9
	c4.8,0.8,10.1-3,12.6-9.3c0.3-0.6,1-0.9,1.6-0.7c0.7,0.2,1.1,1,0.8,1.7c-1.2,2.9-2.9,5.3-5,7.2c-0.5,0.5-0.7,1.2-0.4,1.9
	c1.1,2.4,3.6,5.3,6.6,7.6c4.8,3.6,11.6,7,19.2,9.7C300.8,284.6,301.2,285.4,301,286z M315.1,242.1c-5.1,0-9.2-4.6-9.2-10.3
	c0-5.7,4.1-10.3,9.2-10.3s9.2,4.6,9.2,10.3C324.2,237.4,320.1,242.1,315.1,242.1z"/>
<path fill="#F197A7" d="M15.5,73.6C13.2,63.1,17.4,52.1,26.3,46C45.5,32.8,80.8,15.6,124,27.7C189.9,46.1,9.6,217,17.5,139.1
	C20.8,107.5,18.3,86.3,15.5,73.6z"/>
</svg>
