<?xml version="1.0" encoding="iso-8859-1"?>
<!-- Generator: Adobe Illustrator 22.1.0, SVG Export Plug-In . SVG Version: 6.00 Build 0)  -->
<svg version="1.1" id="Layer_1" xmlns="http://www.w3.org/2000/svg" xmlns:xlink="http://www.w3.org/1999/xlink" x="0px" y="0px"
	 width="850.394px" height="850.394px" viewBox="0 0 850.394 850.394" enable-background="new 0 0 850.394 850.394"
	 xml:space="preserve">
<path d="M767.81,152.941c-43.566-5.022-93.604,3.932-130.574,28.877c-28.302-39.461-57.493-78.563-99.887-103.754
	c-5.859-3.481-11.989-7.013-18.313-10.476c-0.712-1.015-1.993-1.718-3.354-1.812c-28.578-15.353-61.006-28.857-92.168-29.382
	c-39.531,0.581-81.313,20.486-115.221,39.355c-43.866,24.41-73.43,64.356-102.176,104.456
	c-32.067-21.608-74.384-31.061-112.46-30.125c-32.459,0.798-81.588,6.909-91.042,44.774c-7.836,31.382,21.566,58.208,42.31,76.969
	c31.358,28.361,70.362,58.509,113.386,64.826c28.26,4.149,56.786-7.564,70.288-30.699c0.05,9.568,0.398,19.124,1.818,28.918
	c3.359,23.172,9.525,45.799,16.219,68.198c13.718,45.905,27.937,91.67,41.841,137.52c6.5,21.436,18.916,46.743,12.444,69.194
	c-2.781,9.646-9.316,17.379-12.339,26.907c-2.572,8.107-3.233,16.711-2.348,25.147c3,28.585,21.197,47.088,46.482,57.594
	c25.903,10.763,55.648,19.2,83.748,21.032c24.148,1.574,50.421-5.9,73.342-12.687c26.348-7.802,50.829-17.486,62.188-44.513
	c5.291-12.59,7.138-27.072,4.008-40.469c-1.984-8.492-6.466-14.867-10.145-22.605c-7.986-16.802-4.91-32.201,0.248-49.143
	c15.184-49.867,30.208-99.781,45.497-149.616c7.43-24.219,14.891-48.524,19.444-73.483c2.544-13.945,3.229-27.477,3.452-41.142
	c11.036,19.532,32.557,32.107,56.301,32.416c42.024,0.546,82.123-27.547,113.125-53.185c23.026-19.042,57.276-45.681,58.059-78.601
	C842.92,168.166,798.774,156.51,767.81,152.941z M263.132,337.513c-3.036,0.1-5.578-2.281-5.678-5.317
	c-0.1-3.036,2.281-5.578,5.317-5.678c3.036-0.1,5.578,2.281,5.678,5.317C268.548,334.871,266.168,337.413,263.132,337.513z
	 M583.093,334.06c-3.036,0.1-5.578-2.281-5.678-5.317c-0.1-3.036,2.281-5.578,5.317-5.678c3.036-0.1,5.578,2.281,5.678,5.317
	C588.51,331.418,586.13,333.96,583.093,334.06z"/>
<path fill="#633411" d="M288.759,262.193c-2.999-7.45-3.692-23.135-8.833-29.1c-10.907-12.654-26.944,19.099-40.549,5.727
	c-9.32-9.16,0.087-32.68,1.917-42.81c3.825-21.173,7.57-42.36,11.464-63.52c-15.168,17.302-28.779,36.208-42.285,55.071
	c-1.144,1.598-3.535,2.719-5.376,1.41c-33.429-23.782-78.821-33.282-119.218-30.706c-22.055,1.406-51.649,5.04-67.177,22.554
	c-17.259,19.467-7.367,43.013,6.863,60.426c23.921,29.271,57.183,54.529,90.322,72.152c21.366,11.361,47.594,20.965,71.97,14.45
	c22.213-5.936,39.228-25.042,40.781-48.108c0.337-5.008,7.794-5.1,7.858,0c0.292,23.177-0.505,44.256,3.932,67.376
	c4.232,22.052,10.627,43.598,17.182,65.05c14.04,45.954,27.997,91.932,41.957,137.911c2.63,8.663,5.958,17.528,8.29,26.537
	c2.901-3.074,5.414-6.425,7.572-10.012c0.067-1.084,0.656-2.031,1.503-2.688c9.037-16.686,11.64-37.476,14.642-55.606
	c4.036-24.378,6.356-49.073,6.364-73.793c0.018-49.903-10.041-98.949-34.156-142.904
	C298.484,281.952,292.881,272.433,288.759,262.193z M273.656,336.651c-1.473,4.712-4.936,8.188-9.034,9.073
	c-0.703,0.152-1.427,0.229-2.155,0.229c-3.622,0-7.339-1.889-9.939-5.052c-2.591-3.159-3.858-7.054-4.838-10.792
	c-0.967-3.691-1.75-7.649-0.939-11.589c1.277-6.219,8.186-11.474,15.087-11.474c3.383,0,6.296,1.278,8.42,3.697
	c3.456,3.94,3.975,9.089,4.236,14.46C274.669,328.747,274.869,332.768,273.656,336.651z M822.967,180.704
	c-15.582-16.09-44.278-19.483-65.497-20.837c-40.401-2.577-85.792,6.925-119.218,30.706c-1.857,1.321-4.227,0.195-5.376-1.409
	c-28.286-39.505-57.063-79.102-99.493-104.314c-5.47-3.25-11.186-6.555-17.071-9.81c-22.074,32.43-18.505,76.464-5.338,111.868
	c2.927,7.87,6.468,15.677,11.022,22.758c3.983,6.193,10.483,11.556,12.96,18.587c3.345,9.495-1.93,15.201-9.95,19.645
	c-8.178,4.531-17.1,6.528-23.063,14.258c-6.633,8.599-7.074,20.33-10.324,30.372c-3.228,9.973-9.168,18.285-13.95,27.484
	c-8.573,16.49-6.711,33.38-2.823,50.831c11.674,52.393,39.159,98.377,84.977,128.102c9.81-32.11,19.699-64.198,29.312-96.365
	c6.137-20.536,11.88-41.275,15.333-62.457c3.268-20.049,2.131-38.746,2.384-58.782c0.064-5.109,7.521-5,7.858,0
	c1.558,23.133,18.534,42.147,40.781,48.108c24.388,6.535,50.602-3.075,71.97-14.45c33.18-17.664,66.325-42.887,90.322-72.152
	C832.825,224.504,841.964,200.32,822.967,180.704z M598.015,325.657c-0.734,3.794-1.74,7.763-4.119,11.085
	c-2.529,3.528-6.464,5.718-10.267,5.718c-0.491,0-0.988-0.035-1.486-0.109c-4.15-0.615-7.83-3.858-9.608-8.463
	c-1.458-3.769-1.529-7.806-1.59-11.368c-0.089-5.381,0.092-10.553,3.278-14.704c2.118-2.756,5.329-4.273,9.037-4.273
	c6.645,0,13.343,4.706,14.933,10.49C599.258,317.916,598.737,321.914,598.015,325.657z M542.231,685.492
	c-7.914,14.784-19.682,22.071-34.666,27.989c-24.853,9.816-52.633,16.578-79.276,18.929c-23.57,2.079-49.139-5.731-71.401-12.664
	c-32.31-10.063-63.74-26.188-63.151-65.543c0.292-19.506,14.729-33.422,16.687-52.558c0.606-5.923,0.137-11.805-0.924-17.634
	c1.076,0.197,2.24-0.073,3.247-1.1c2.458-2.508,4.616-5.158,6.545-7.915c4.988,10.626,6.742,22.009,5.262,33.986
	c-0.066,0.533-0.019,0.996,0.089,1.415c-1.143,2.58-1.979,5.448-2.353,8.737c-2.621,23.068,9.158,46.609,21.867,64.918
	c20.996,27.47,49.53,35.249,82.673,35.366c38.372,0.135,66.283-21.083,82.917-54.694c6.67-13.476,15.046-30.78,14.269-46.261
	c-0.181-3.609-1.319-6.715-3.09-9.419c2.522-15.376,7.775-30.094,17.009-42.262c-5.433,19.399-7.74,39.117,1.139,57.372
	C549.261,645.099,554.052,663.411,542.231,685.492z"/>
<path fill="#E5B6B2" d="M494.643,601.339c-9.199-3.313-18.767-5.762-28.339-7.723c-21.751-4.457-44.197-5.751-66.323-3.877
	c-18.458,1.564-59.787,4.718-68.189,24.085c-9.064,20.892,7.499,49.477,19.149,66.26c20.802,27.216,53.978,34.342,86.553,31.178
	c42.752-4.152,70.901-45.103,77.851-84.958C517.867,611.845,507.085,605.82,494.643,601.339z M365,668.735
	c-11.893-14.236-20.135-30.472-24.343-48.554c-1.147-4.928,6.431-7.012,7.577-2.089c3.902,16.764,11.277,31.866,22.322,45.087
	C373.779,667.036,368.246,672.62,365,668.735z M503.662,620.181c-4.208,18.082-12.448,34.316-24.343,48.554
	c-3.247,3.887-8.777-1.701-5.556-5.556c11.045-13.22,18.421-28.322,22.322-45.087C497.233,613.161,504.808,615.261,503.662,620.181z
	"/>
<path fill="#C79665" d="M543.379,549.666c-16.005,13.415-25.072,32.414-29.164,52.568c-5.251-3.815-11.785-6.44-17.482-8.473
	c-42.66-15.22-91.274-16.745-135.034-5.5c-10.258,2.636-21.075,5.596-28.823,11.695c-0.089-11.534-3.104-22.678-8.829-32.872
	c5.659-10.953,8.604-23.195,11.18-35.642c4.782-23.11,8.151-46.57,9.677-70.126c3.044-47.005-1.386-95.251-18.335-139.481
	c-7.913-20.649-20.153-38.847-29.048-58.963c-4.982-11.265-5.288-38.4-21.011-41.658c-6.482-1.343-11.52,2.569-16.448,6.092
	c-5.44,7.536-10.749,6.392-15.927-3.434c0.312-1.667,0.625-3.333,0.937-5c-0.291-6.387,2.662-14.458,3.803-20.774
	c4.468-24.742,8.785-49.511,13.416-74.223c0.121-0.647,0.091-1.241-0.045-1.782c14.672-15.312,30.948-28.947,50.018-39.559
	c32.624-18.155,73.117-37.722,111.255-38.282c29.006,0.488,59.051,12.793,85.852,27.021c-21.064,30.989-19.82,72.222-9.513,107.048
	c4.264,14.407,10.225,28.452,19.079,40.648c4.399,6.06,12.765,11.253,5.792,20.047c-2.038,2.57-7.876,4.069-10.76,5.41
	c-7.027,3.267-13.647,6.444-18.427,12.791c-5.416,7.191-7.089,16.338-9.272,24.844c-3.705,14.443-11.765,25.204-17.675,38.549
	c-9.628,21.739-3.475,45.382,2.368,67.322c12.874,48.342,42.633,90.396,84.943,117.829c0.563,0.365,1.118,0.553,1.652,0.615
	c-1.657,5.435-3.332,10.864-4.979,16.301C549.952,531.335,546.578,540.401,543.379,549.666z"/>
<g>
</g>
<g>
</g>
<g>
</g>
<g>
</g>
<g>
</g>
<g>
</g>
</svg>
