<?xml version="1.0" encoding="utf-8"?>
<!-- Generator: Adobe Illustrator 22.0.1, SVG Export Plug-In . SVG Version: 6.00 Build 0)  -->
<svg version="1.1" id="Layer_1" xmlns="http://www.w3.org/2000/svg" xmlns:xlink="http://www.w3.org/1999/xlink" x="0px" y="0px"
	 width="850.4px" height="850.4px" viewBox="0 0 850.4 850.4" style="enable-background:new 0 0 850.4 850.4;" xml:space="preserve"
	>
<path d="M81.5,177.3c5.9,8.1,11,16.8,15.9,25.6c-9.8-11.1-19.6-22.7-27.5-35.7c-2.2-3.6-4.1-7.5-5.9-11.6
	C70,162.6,76,169.8,81.5,177.3z M471.6,686.6c1.5-2.7,2.9-5.5,4.1-8.3c0.9,7.1,2.2,14.2,4.1,21c4.8,16.8,10.4,33.5,16.5,49.9
	c0.2,0.5,0.4,1.1,0.6,1.6c-1.3-0.1-2.6-0.2-3.9-0.3c-11.3-1.1-27.4-3.8-36-15.3c-3-3.9-4.4-7.7-4.7-11.4v0
	c-1.1-10.4,6.5-19.8,12.5-27.2l0.3-0.4c0.1-0.1,0.1-0.2,0.2-0.3c0.4,0.3,0.7,0.6,1.1,0.9c0.8,0.7,1.9,0.6,2.9,0.1
	c1.5-0.8,2.9-2.4,3.1-3.5c0.1-0.7,0-1.4-0.1-2.2C472,689.8,471.8,688.2,471.6,686.6z M478.9,717.4c-4,2.2-7.7,5.9-11.3,5.9
	c-3.6,0-7.2-3.9-10.9-6.1c-0.4,1.7-0.8,3.4-1.3,5c-1.7,5.6-1.4,6.6,3.6,9.6c2.1,1.3,4.1,2.7,6.3,3.5c1.6,0.6,3.7,0.5,5.3-0.1
	c2.1-0.7,4.3-1.8,6-3.3c2.2-1.9,6.2-2.9,5-7.1C480.7,722.2,479.7,719.7,478.9,717.4z M98.9,20.6c-4.4,0-8.7,0.6-13.1,1.1
	c9.4-8.5,21.1-14.2,35.1-15.7c1.9-0.2,3.9-0.3,5.8-0.3c0,0,0,0,0,0c12.9,0,25.5,4.5,36.1,11.9c-0.6,0.8-1.1,1.6-1.6,2.4
	c2,0.3,3.9,0.5,5.8,0.8c2.4,2,4.6,4.1,6.7,6.3c-5.7-1.2-11.6-1.8-17.4-2.8c-7.4-1.2-14.7-2.9-22.1-3.3
	C122.6,20.4,110.7,20.5,98.9,20.6z M115.7,14.6c14.4,1.3,12.9,1.8,15.6-4.7C124,9.2,121.4,9.9,115.7,14.6z M323.1,768.7
	c-2.1-4-2.9-8.4-2.3-13c5.5-3.5,10.5-7.6,15.7-11.7c8.1-6.5,14.4-14.9,17.9-24.8c1.3-3.7,2.3-7.6,2.8-11.5c0.2-1.6,0.3-3.2,0.3-4.8
	c0-2.7-0.5-5.3-1.4-7.9c-0.3-0.9-2.3-7.8-3.1-7.8c-5.2-0.4-9.7,0.4-13.8,2.1c-1-3.4-2.1-6.9-3.2-10.3c-0.4-1.3-0.8-2.6-1.2-3.9
	c4.2-1.3,8.5-2.5,12.8-4c-4.1-16-6-33.2-4-50.7c2-17.4,9-33.3,15.9-49.3c-3,2.7-5.8,5.4-8.2,8.4c-4,5.1-7.6,10.6-12,15.4
	c-4.2,4.5-7.9,9.4-11.2,14.6c-3,4.7-5.7,9.6-8.3,14.5c-1.4,0.9-3.2,3.1-4.7,6.8c-1.8,4.6-3.8,9.1-5.8,13.6c-1,1.9-1.8,3.9-2.7,5.9
	c-0.1,0.3-0.2,0.5-0.4,0.8c-3.8,8.3-7.8,16.9-10.8,25.6c-3.5,9.7-4.1,17.6-3.4,25.9c-0.2,1.9-0.4,3.7-0.5,5.6
	c-0.6,10.2,0.1,20.3,1.8,30.3c-2.3,5.5-6.7,10.5-14.7,14.8c-15.5,8.2-32.9,12.6-50.4,12.6h-0.8c-2.6,0-5.2-0.1-7.9-0.2h-0.2
	c-15.2-0.6-31.6-3-42.4-11.1c1.1-1.9,2.1-3.8,3.2-5.7c-1.7,1.4-3.3,2.9-4.7,4.5c-1.8-1.5-3.4-3.1-4.8-5c-0.8-1-1.4-2.1-1.9-3.1
	c2.2-2.2,4.2-4.6,5.9-6.9c0.1-0.2-4.3-1.3-8-2.2c0.1-3.6,1.1-7.1,2.6-10.5c1.1,0.4,2.2,0.8,3.2,1.3c0.2-0.4,0.4-0.8,0.6-1.3
	c-1-0.6-2.1-1.1-3.1-1.7c0.7-1.5,1.5-2.9,2.3-4.3c0-0.1,0.1-0.2,0.2-0.3c1.8-3.1,3.9-6.1,5.8-8.8c1.1-1.6,2.2-3.2,3.1-4.6
	c0.9-1.3,1.7-2.6,2.3-3.7c4.6-8.6,7.8-18.1,10.6-27.6c7.7,4.2,15.9,7.3,22.5,9.1c7.3,2,11.7,1.8,12.2-7.4c-9.4-4-21.6-8.1-31.1-14.4
	c1.3-4.7,2.7-9.5,4.3-14.2c1.7-5,3.5-10,5.3-14.9c0.1,0.5,0.2,0.9,0.3,1.4c0.5,2,1.6,4,3,5.4c8,7.4,18.3,9.9,28.4,12.9
	c0.8,0.2,2.3,0.1,2.7-0.5c2.7-3.5,5.2-7.2,7.5-10.4c-7.8-3.4-15.6-6.5-23-10.4c-2-1-3.9-4.5-3.8-6.7c0.4-8.2,1.6-16.4,2.5-25.1
	c-1.8,0.2-3.6,0.5-5.4,0.7c0.1-0.3,0.2-0.6,0.3-0.8c0.6-1.6,1.2-3.3,1.9-4.9c10.6-1.5,21.3-3,31.8-5.3c11.7-2.5,23.4-5.1,34.5-9.4
	c18.5-7.1,36.7-15.3,54.7-23.5c7.2-3.3,13.8-8.1,20.6-12.2c-10.9,3.3-21.3,7.4-32,10.9c-7.9,2.6-16,4.9-24.1,6.4
	c-12.7,2.4-25.6,4.3-38.4,6.1c-8.4,1.2-16.9,2.6-25.4,2.5c-4.1-0.1-8.3-0.2-12.5-0.4c3-8.2,5.9-16.4,8.6-24.6c1.7,0.3,3.3,0.6,5,0.7
	c8.3,0.7,16.6,0.9,25,1.2c7.5,0.2,14.9,0.7,22.4,0.4c7.5-0.3,14.9-1.3,22.3-2.4c9.6-1.4,19.2-3.3,28.8-5c0-0.4-0.1-0.7-0.1-1.1
	c-36.2-0.3-67.4-12.5-92.2-36.8c0.8-6.2,1.3-12.4,1.7-18.7c23.9-25.9,42-22.7,65.3-0.9c2.7-4.5,5.4-8.9,8-13.2
	c-7.1-6.8-23-11.8-35.6-11.1c-4.3,0.2-8.9,0.2-12.6,2c-9.6,4.7-17.6,11.6-24.9,19.4c0.1-2.7,0.2-5.4,0.3-8.2
	c25-23.1,55-34.4,89.6-35.1c-1.2-0.7-2.4-1.2-3.6-1.5c-5.7-1.1-11.3-2.3-17-3.1c-10.3-1.4-20.6-3-30.9-3.7
	c-8.4-0.5-16.9-0.2-25.4,0.4c-3,0.2-6,0.3-8.9,0.4c0.4-1.8,0.8-3.5,1.2-5.2l0-0.1c2.4,0,4.8,0,7.3,0c-1.2-3.2-3-5.8-5.3-7.8
	c0.7-3.1,1.3-6.1,1.6-9c7,0.8,14,1.9,20.9,2.8c20.2,2.8,40,7,59.1,14c6.8,2.5,13.5,5.3,20.3,8c-3-3-6.3-5.2-9.7-7.3
	c-14.3-8.7-29.5-15.7-45.2-21.5c-13.6-5.1-27.2-10.5-41.3-13.9c-2.7-0.7-5.3-1.2-8-1.8c-3.5-8-8.5-14.6-14.4-20.3
	c-6.1-5.9-13.3-10.8-21-15.2c0-0.2,0-0.5-0.1-0.7c-0.1-0.9,0.5-1.8,0.8-2.8c1.1-3.8,4.6-4.4,7.6-5.8c6-2.9,12-5.8,18.3-8.9
	c-2.1-2.9-4.4-6.4-7-9.6c-0.6-0.7-2.4-1.1-3.3-0.8c-7.2,2.5-14.5,4.6-21.3,8c-3.7,1.8-8.1,5.2-9.4,8.8c-0.4,1.3-0.7,2.6-1,3.8
	c-3-1.5-6.1-2.9-9.1-4.4c-4.8-2.3-9.7-4.6-14.5-7c1.6-5.1,4.1-9.9,7.9-13.7c2.7-2.8,37.3-19.3,37.3-19.7c-2.4-9.1-2.4-9.1-12.1-7.5
	c-1.3,0.2-2.5,0.6-3.7,0.9c-12.2,3.8-22,11.7-32.5,18.5c-3.3,2.1-5.7,8.1-7.4,15.7c-7-4-13.4-8.2-19.3-12.8
	c-1.7-1.3-3.3-2.7-4.9-4.1c0,0-0.1-0.1-0.1-0.1c-0.2-0.2-0.4-0.4-0.6-0.6c3.8-0.6,7.7-1.2,11.5-1.9c0.9-0.2,2.1-2,2-3
	c-0.3-6.3-0.7-12.5-1.4-18.8c-1.6-13.8-6.3-26.5-13.6-38.3c-4.5-7.1-8.3-14.5-13-21.5c-7.4-11-14.5-22.3-23.1-32.4
	c-9.7-11.5-20.5-22.3-31.5-32.7c-6.2-5.8-12.7-11.3-19.3-16.7c-0.9-2.9-1.6-5.9-2.3-9c0.3,0.2,0.5,0.4,0.7,0.6
	c20.5,16,42.9,29.2,66.3,40.3c11.9,5.7,24.6,9.8,37.2,13.8c12,3.9,24.3,7,36.6,10c10.7,2.7,21.5,0.9,32.3,0.1
	c4.9-0.4,9.8-2.1,14.6-3.4c0.7-0.2,1.6-1.5,1.5-2.2c-0.8-7.9-1.6-15.7-2.8-23.5c-0.1-0.9-2.4-2.4-3.5-2.2
	c-6.8,0.8-13.6,2.7-20.4,2.9c-13.7,0.3-27.4,0.3-41-0.6c-14.8-1.1-29.4-4-43.6-8.9c-12.1-4.2-24.9-6.4-36.8-11.1
	c-14-5.6-27.3-12.9-40.9-19.5c-0.4-0.2-0.8-0.4-1.2-0.6c-1-5.5-1.6-11.2-1.9-17.1c8.1,5.2,16.4,7.4,25.5,6.1
	c-4.7-3.7-9.7-7.5-14.6-11.4c-0.5-0.4-1-0.9-1.5-0.8c-3.1,0.3-6.2,0.7-9.5,1.1c0-1-0.1-2-0.1-3.1c0-0.8,0-1.6,0-2.4
	c3.9-0.3,7.9-0.9,12-2c-4.6-1.5-8.4-3.6-11.6-6.2c0.5-7.2,1.6-14.5,3.3-21.6c10.6,5.9,22,7.8,35.1,3.6c-11.1-7.8-22.3-9.8-34.1-7.9
	c2.2-8.1,5.1-16,8.8-23.2c1.9-0.4,3.8-0.7,5.8-0.9c-1.4-0.8-2.8-1.5-4.2-2.2c0.9-1.6,1.9-3.3,2.9-4.8c0.3,0.1,0.6,0.2,0.8,0.3
	c0.4,0.2,1.1-0.3,1.6-0.5c5.8-2.4,11.6-4.8,17.1-7.1c-3.9-1.7-7.9-2.6-11.9-2.8c1.6-1.8,3.2-3.5,5-5.1c35.6,6.3,64.8,23.3,85.9,51.5
	c6.5-4.4,12.5-9,18.7-12.9c0.7,7.2-0.2,13.9-2.7,19.7c-2.6,1.9-4.9,4.3-6.9,7.1c0.4,0.6,0.8,1.1,1.2,1.7c-2,2.2-7.2,7.2-12.7,9.3
	c-0.3-0.3-0.5-0.6-0.8-1c-0.8,0.6-1.6,1.2-2.3,1.8c-0.4,0.1-0.9,0.1-1.3,0.1c-0.9,0-1.7-0.1-2.5-0.3c-1.3-0.4-2.4-1.1-3.4-2
	c2-1.3,4-2.6,6.1-3.8c0.8-0.5,0.8-2.1,1.1-3.2c-2.8,2.3-5.6,4.2-8.2,5.9c-0.6-0.8-1.2-1.6-1.7-2.6h0c-1.2-2.4-2-5.1-2.6-7.4
	c-0.3-1.1-0.6-2.1-0.9-2.8c-2-5.2-4.4-11.4-8-16.3c0,0,0,0,0,0c-1.2-1.6-2.5-3.1-4-4.4c-2.9-2.4-6.3-3.7-10.1-3.7
	c-4.6,0-9.3,1.8-13.3,5c-6.7,5.3-9.4,14.5-8.4,27.2c-2.7-2.7-5.4-5.6-8.1-9c-3.3,4.1-6.5,8.1-9.9,12.4c6.4,5.9,13.5,10.1,21.3,12.7
	c0.8,2.2,1.6,4.4,2.6,6.5c-7.9-1.6-15.3-4.9-21.1-10.2c-6.3-5.9-11-4.5-16.8-0.6c-1.6,1.1-3.4,2-5.3,3.1
	c13.6,11.3,28.2,15.7,45,11.2c0.9,1.7,1.8,3.3,2.9,4.8c-15.7,3.9-32.3,4.9-49.7,3.1c6.9,2.3,13.7,5,20.8,7c10,2.8,20,5.5,30.1,7.5
	c5.4,1.1,10.9,1.2,16.4,1.8c2.7,2.2,5.4,4.2,8,6.1c-0.1,0-0.2,0-0.4,0c4.1,11.6,13.5,17,25.9,16.2c-0.7-1.1-1.4-2.3-2.1-3.5
	c13,5.3,27.1,8.2,41,8.2h0.4c12.3,0,24-2.6,36.5-5.3c5.2-1.1,10.6-2.3,16.1-3.3l4.4-0.8c10-1.8,21.4-3.9,32.4-3.9
	c1.7,0,3.4,0.1,5,0.2c11.6,13.1,8.5,28.4,6.4,43.7h7.7c0.6-2.2,1.9-4.7,1.9-7.1c0.2-6.3,0.5-12.8-0.3-19.1c-0.7-5.1-0.8-11-6.6-13.9
	c-2.7-1.3-5.5-2.4-8.3-3.6c4.2,0.3,8,1,11.5,2c10,3,16.3,10.4,22.4,17.7c2.6,3.1,5,6,7.7,8.5c0.5,8.1-0.5,15.7-4.3,22.9
	c4.8,2.1,9.2,4.1,13.9,6.2c3.3-6.9,3.4-13.9,2.8-20.9c9.8,4.7,20.3,6.5,31.3,7.8c7,7.1,12.7,15.3,18.7,23.4
	c9.5,12.8,18.1,26.1,24.7,40.6c2.3,5.1,3.8,10.6,6.1,15.7c10.5,23.1,18.3,46.9,22.2,72c0.8,5.5,1.5,11,2.3,16.5
	c0.3,0,0.6-0.1,0.8-0.1c0.3-4.7,1.2-9.4,0.8-14.1c-1.2-16.4-2.5-32.7-4.3-49c-1.1-9.7-2.5-19.5-5-28.9c-3.6-13.6-7.7-27.1-12.6-40.3
	c-3.7-10-7.9-19.9-12.9-29.3c1.4,0.4,2.8,0.9,4.2,1.4c1.2,0.5,2.5,1,3.7,1.5c0,0.3,0,0.5,0,0.7c1.7,4,3.6,8,5.1,11.3
	c3.1-2.1,6.2-4.1,9.2-6.2c2.8,1.2,5.6,2.4,8.3,3.6c7.2,3.1,14.6,6.3,22,9.2c2.1,0.8,4.6,1.6,7.2,2.4c1.3,0.4,2.6,0.8,3.9,1.3
	c-1.3,3.4-2.5,6.8-3.7,10.2c-4.3,12.8-8.8,25.6-11.6,38.8c-3.1,14.3-4.7,28.9-6.4,43.5c-1.7,14.6-2.9,29.2-0.3,44
	c0.6-3.5,1.2-7,1.9-10.4c2.4-12.4,3.8-25.1,7.4-37.2c4.3-14.3,11.1-27.8,15.7-42c4-12.4,9.8-23.8,16.4-34.6
	c1.9,4.3-0.3,8.1-1.6,10.4c-0.9,1.6-1.7,2.9-1.7,4.3c0,0.3,0.1,0.7,0.5,1.3c-3.1,7.7-2.4,14.5,2.4,20.4c3.2-5,6.2-9.8,8.8-13.8
	c-0.2-0.5-0.4-1.1-0.5-1.6c2,0.5,4.5,1.1,7.3,1.6c-0.2,0.2-0.4,0.5-0.6,0.7c-3.1,3.5-4.9,8.2-7.6,12C509,294.5,500.5,312,493.2,330
	c-2.8,6.9-4.9,14-7.3,21c0.4,0.3,0.8,0.7,1.2,1c18.8-31.4,45.8-51.7,80-60.6c-1.6-7.5-3.6-14.6-4.9-21.7c5.7,0.5,11.5,1,17.3,1.9
	c0.6,5.8,2.4,18.1,4,17.5c8-2.7,14.9-4.2,21.6-9.8c0.4-0.3,0.7-0.6,1.1-1c6.9,2.6,13.6,5.7,20.1,9.4c-3.8,3.2-8.3,5.6-13.1,7.5
	c-8.1,3.1-16.6,5.4-25.1,8.2c4.1,16.1,6,33.2,4,50.5c-1.9,17.3-8.7,33.1-16,48.7c0.5,0.3,0.9,0.5,1.4,0.8
	c6.2-7.7,12.3-15.5,18.5-23.2c0.5-0.6,1.1-1.1,1.6-1.7c11-14.2,19.3-30,27.6-45.8c4.4-8.5,7-17.6,10.4-26.4
	c1.3-3.4,2.4-6.8,3.4-10.2c1.6,1.1,3.2,2.3,4.7,3.5c-0.2,0.9-0.4,1.8-0.6,2.7c1.5,0.3,3,0.3,4.4,0.3c4.9,4,9.7,8.3,14.3,12.9
	c-4.3,8.7-9.3,17.1-14.6,25.3c-4.1,6.4-9.4,12.1-13.8,18.3c-13.4,18.5-28.2,35.6-45.6,50.2c-6.1,5.1-12.4,9.9-18.6,14.8l0.6,0.6
	c3.4-1.7,7-3.4,10.4-5.2c14.9-8.3,28.9-18,41.9-29c11.3-9.4,23.1-18.5,33.1-29.2c8.2-8.8,15.7-18.3,23.1-27.8
	c2.2,2.5,4.4,4.9,6.6,7.3c8.8,9.7,17.8,19.6,26.1,29.8c-0.1,1.5-0.3,3.1-0.5,4.8c1.3-0.2,2.6-0.3,3.9-0.5c1.3,1.7,2.6,3.3,3.8,5
	c-0.4,0.1-0.8,0.1-1.1,0.2c-12.1,1.9-24.3,3.3-36.2,5.8c-11.2,2.4-22.6,4.9-33.3,9.1c-18.5,7.1-36.6,15.3-54.7,23.6
	c-7,3.2-13.3,7.7-19.9,11.7c0.2,0.3,0.3,0.7,0.5,1c3.7-1.5,7.4-3.1,11.1-4.3c12.7-4.2,25.2-9.2,38.2-12.2c13.3-3.1,27-4.5,40.5-6.4
	c9.5-1.3,19.1-3,28.7-3.1c11.4-0.2,22.7,1.2,34.1,1.8c3.2,0.2,6.4,0.4,9.6,0.7c1,1.9,1.9,3.8,2.8,5.7c-3.1-0.3-6.3-0.2-9.6,1.3
	c-6.3,3-10.4,7.6-13.5,13.6c5.8,1.7,11.1,3.2,16.5,4.7c0.9,0.2,2.3,0.1,3-0.5c2.8-2.5,5.5-5,8.3-7.5c2.5,7.3,4.1,14.2,4.9,20.8
	c-10-5.2-20.8-9.1-32.4-11.4c-9.1-1.8-18.2-4-27.5-5.2c-7.4-0.9-14.9-0.7-22.4-0.9c-7.5-0.2-14.9-1-22.3-0.4
	c-11.7,0.9-23.4,2.6-35.1,4.2c-5.2,0.7-10.3,2.3-15.4,3.5c37,1.2,68.8,14.2,93.8,39.8c7.7-6.9,14.5-13.8,22.2-19.5
	c7.8-5.6,16.9-9,26.8-7.9c4.5,0.5,8.7,1.6,12.8,3c0.5,7.2,0.1,13.9-0.8,19.9c-5.2-1.3-10.5-2.1-16.4-1.8
	c-13.5,0.6-27.1,6.2-33.6,18.7c9.3,10.6,19.2,17.6,33.8,18.1c0.9,0,1.8,0,2.7,0c-5.3,7.8-12.4,15.3-17.4,15.3
	c-1.4,0-2.7-0.5-3.6-1.5c-0.7-0.7-1.2-1.7-1.7-3.1c-0.2-0.6-0.5-1.4-0.7-2.2c-1.2,0.5-2.1,0.6-2.5,0.3c-1.5-1.6-1.2-14.9-1.4-14.9
	c-0.8,2.2-1.7,4.4-2.5,6.6c-0.7,1.8-1.3,3.7-1.9,5.5c-0.2,0.5-0.3,1-0.4,1.5c-5.1-4.5-10-9.3-15.3-14.1
	c-25.4,26.1-57.4,38.9-94.5,40.1c7.2,1.4,14.3,3.1,21.5,4.2c10.3,1.5,20.6,2.8,30.9,3.5c7.6,0.5,15.2-0.8,22.8-0.4
	c12.7,0.5,25.1-1.1,37.4-3.6c3.6,7.7,9,15.2,14.8,23.1c0.6,0.8,1.2,1.6,1.8,2.4c-4.7,0.5-9.4,0.9-14.2,1.2
	c-14.8,0.9-29.7-0.1-44.4-3.1c-12.5-2.5-25.6-3-37.9-6.1c-14.6-3.7-28.7-9.2-43.1-13.9c-2.8-0.9-5.7-1.9-8.5-2.9
	c-0.1,0.2-0.2,0.5-0.2,0.7c3.2,2.1,6.4,4.4,9.7,6.4c22.5,13.2,46.4,23.2,71.1,31.2c12.5,4,25.7,6.4,38.7,8.8
	c12.4,2.3,25,3.7,37.6,5.1c3.3,0.4,6.6,0.3,9.9,0c4.2,6.7,8.1,13.4,11.8,20.1c0.4,11.3,0.5,24.9-0.2,27.3
	c-5.5,19.3-28.8,25.1-45,33.2c-8,4.1,9.7,7.5,10.6,7.5c10.9-0.8,23.8-9.7,32.5-15.9c3.8-2.7,7.5-5.7,10.2-9.5
	c3.2-4.6,4.8-10,5.4-15.6c7.9,17.7,14,35.4,18.3,53.3c-0.3-0.1-0.6-0.2-1-0.3c0.8,1.8,1.5,3.6,2.2,5.4c2.5,10.9,4.3,22.3,2.1,33.4
	c-5.9-0.7-11.8-1-17.8-1.1c-0.8,0-1.6,0.4-2.5,0.6c3.5,1.3,6.9,2.2,10.3,2.1c3.2-0.1,6.4,0.1,9.5,0.5c-1.3,5.1-3.5,9.6-6.8,13.3
	c-1.6-0.6-3.2-1.3-4.7-1.9c-5.1-2.1-10.5-3.4-16.5-5.2c0.9,6.3,2.3,12.3,4.2,18c-3.3,1.1-6.9,2-10.8,2.7c-0.3,0-0.6,0.1-0.9,0.1
	c-0.1-4.4-0.8-8.8-1.2-13.1c-0.5,0-0.9,0.1-1.4,0.1c0.1,4.5,0.1,8.9,0.2,13.4c-6.9,0.9-13.8,1.1-19,1.3c-1.2,0-2.4,0.1-3.6,0.1
	c-0.8,0-1.7,0-2.5,0c-1.2,0-2.4,0-3.6-0.1c-1.9,0-3.9-0.1-5.8-0.2c-1-0.1-2.1-0.1-3.1-0.2c-12.3-0.8-24-3-35-6.3
	c-4.1-1.3-7.6-2.8-10.3-4.6c-0.2-0.1-0.4-0.3-0.6-0.4c-3.3-2.3-5.5-5.2-6.7-8.5c-0.7-2-0.9-4-0.8-6.1c2,0.6,4,1.3,5.8,2.2
	c4.9,2.3,9.2,5.8,14.4,9.2c0-2.8,0-5.1,0-7.4c0-3.4,0.1-6.6-3.7-8.7c-4.3-2.4-8.4-5.3-12.6-7.9c2.5-4.8,5.9-9.7,9.3-14.5
	c2.6-3.7,5.2-7.4,7.3-10.9c0.7,3.1,1.2,6.3,1.3,9.6c0.1,2.9,2,3.8,4.5,3.1c7.3-2,14.7-4.1,21.9-6.4c0.8-0.3,1.8-2.2,1.6-3.2
	c-1.1-6.2-2.3-12.3-3.9-18.4c-3.4-13.5-9.7-25.5-18.6-36.2c-5.3-6.4-10.2-13.3-15.7-19.6c-8.8-9.9-17.4-20.2-27.1-29.1
	c-11.2-10.2-23.2-19.4-35.5-28.2c-11.5-8.3-23.8-15.4-35.7-23.1c-0.4,0.6-0.8,1.1-1.3,1.7c2.7,2.2,5.4,4.2,8,6.5
	c11.4,10.4,23.1,20.5,33.8,31.5c8.4,8.7,15.6,18.6,22.9,28.3c7.3,9.8,14.6,19.7,20.8,30.2c1.8,3,3.4,6.1,5,9.3
	c-4.8-3.5-10-6.8-15.1-9.9c1.5,0.2,3.1,0.5,4.6,0.7c-2.7-4.2-4.8-9.8-8.8-13.1c-4-3.3-9.9-4.2-14.9-6.1c-0.4,0.6-0.7,1.2-1.1,1.8
	c1.1,2.1,2.2,4.3,3.3,6.4c-2.2-1.4-4.3-2.8-6-4.1c-1.4-1-2.7-2.1-4-3.2c-3.5-6.4-7.2-12.7-10.8-19c-3.3-5.8-7.9-10.8-11.8-16.1
	c-6.3-8-12.7-16-19-24c-0.6,0.2-1.1,0.5-1.7,0.7c10.7,19.1,16.5,38.9,17.4,58.9c-4.2,7.5-5.7,16-7.2,24.9c-0.7,4.4-1.5,8.9-2.6,13.3
	c1.5-8.5,2.9-17,4.2-25.6c0.2-1.7,0.2-3.5-0.2-5.2c-2.4-9.2-7-17.3-13.7-24.1c-5.2-5.3-10.8-10.3-18.3-12.8
	c-2.6,4.8-5.1,9.2-7.6,13.8c26.2,8.3,43.8,18.6,32,56.4c0.3,0.3,0.6,0.6,0.9,0.8c0.8-1,2.1-1.9,2.5-2.9c-0.1,0.5-0.2,1-0.4,1.5
	c-1.6,5.6-3.4,11-5.1,16.3c-3.3,9.9-6.4,19.3-7.9,29.6c-0.9,5.9-2.2,12-4.6,17.3c-3.4-7.2-4.5-15.4-3.2-24.8
	c1.2-8.4,3.6-16.7,5.6-25.6c-32-8.3-57.5-26.6-76-54.3c0.6-2.1,1.2-4.2,1.8-6.3c1.1,1.4,2.3,2.7,3.7,4c0-5.1,0-10.5,0-15.9
	c1-3,2-6,3-8.9c1.1,1,2.2,2,3.4,2.9c-0.9-2.4-1.5-4.7-1.9-7c0-0.1,0.1-0.1,0.1-0.2c2.3-6.1,5-13,3.1-16.7c-0.3-0.6-0.7-1-1.3-1.5
	c0.6-1.6,1.3-3.3,2.1-5c-11.5-1-21.1-5.3-29.1-13.3c0.9,3.8,2.1,7.4,3.4,10.9c-6.8-1.9-13.7-4-20.7-6.4c0.3-1.7,0.5-3.2,0.4-4.5
	c-1.1,1.2-2.3,2.3-3.6,3.4c-2.6-1-5.2-2-7.8-3c-1.6-0.6-3.5-1.6-5.6-2.6c-3.2-1.6-7.2-3.4-10.8-4.7c4.1-5.3,6.6-11.1,5.9-18.8
	c-7,2-12.3,8.7-14.4,17.6c-0.2,0.1-0.5,0.2-0.6,0.3c-0.3,0.3-1,1.5-0.9,4.7c0.6,14,3.4,28.5,6.1,42.6c0.8,4.2,1.6,8.4,2.3,12.6
	c-3.7,1.8-7.4,3.5-10.9,5.2c1.2,14-1.8,26.5-8.6,39.5c13-8.7,19.7-18.1,22.3-28.8c0.8,4.3,1.6,8.6,2.4,13c-6,7.3-12.6,14-20.4,19.7
	c-14.1,10.2-29.7,17.5-46.1,21.9c1.8,7.3,3.6,14,5.2,20.8c2.2,9.2,1.9,18.7-1.5,27.3c-5.2,13.4-16.5,21.3-28.9,27.2
	c-4,1.9-7.8,3.1-11.9,4.6C328.7,764.4,324.4,765.8,323.1,768.7z M601.2,591.3c4.1,8.8,6.2,10.4,13.7,9.7
	C611,596.1,607.9,591.3,601.2,591.3z M738,688.8c6.5,4.9,11.9,10.2,13.7,18.3c1.7,7.6,3.2,15.3,4.8,23c2-0.5,4.2-1,7.4-1.7
	c-0.4-3.9-0.5-7.9-1.4-11.7c-1.1-5-2.4-10.1-4.4-14.8c-1.6-3.8-3.7-8.4-6.9-10.4C747.6,689.3,742.5,689.6,738,688.8z M715.3,699.6
	c2.1,14.2,15.6,25.8,28,28.1C740.6,713.8,727.5,700,715.3,699.6z M704.9,721c0.3,13.2,1.7,15.8,10.4,20.3c1.9,1,3.9,1.9,6,2.4
	c7.3,1.7,14.2,5.9,22.6,3.7c0.6-2.4,1.1-4.7,1.7-7.1C729.8,738.2,714,737.1,704.9,721z M686.2,641.5c2.2,3.1,4.5,6.5,7,9.6
	c0.7,0.8,2.6,1.4,3.5,1.1c8.5-2.9,21.1-4.9,27.5-12.6c9-11,2.9-26.1,0.3-38.5c-4.9-0.6-9.5-1.2-13.9-1.8c1.9,0.2,2.3,23,1.5,25.5
	C708.5,635.9,696,637.2,686.2,641.5z M661.7,611.6c1.2,1.3,2.3,2.5,3.4,3.9c3.7,4.5,4.7,4.8,10,2.4c2.2-1,4.6-1.9,6.5-3.3
	c1.3-1,2.4-2.8,2.9-4.4c0.6-2.2,0.9-4.6,0.6-6.8c-0.3-2.9,1.1-6.7-3.2-8.1c-2.6-0.8-5.2-1.4-7.6-2c-0.4,4.5,0.6,9.7-1.4,12.7
	C670.8,608.9,665.6,609.8,661.7,611.6z M619.8,574.7c0.6,1.2,0.7,1.7,1,1.9c7.2,5.6,14.3,11.2,21.5,16.7c1.8,1.4,6.7,0.8,7.7-0.7
	c1-1.6-1-6.1-3.2-7c-6.7-2.7-13.4-5.3-20.1-8C624.7,576.8,622.6,575.9,619.8,574.7z M669.9,551.7c5.6,11,15.6,15,27.8,12.7
	c-2.8-3.5-5.9-7.3-9-11.1c-0.5-0.6-1.2-1.5-1.8-1.5C681.5,551.6,676.1,551.7,669.9,551.7z M624.6,551.2c3.6,5.5,9.1,6.2,15.2,6.7
	C636.6,551.2,634.1,550.1,624.6,551.2z M670.2,423.2c5.7,0,11.1,0.1,16.5-0.1c0.7,0,1.4-1.1,2-1.8c3.1-3.7,6.1-7.4,8.9-10.8
	C687.3,407.6,674,413,670.2,423.2z M624.3,423.9c14.4-0.6,13,0.1,14.9-6.8C631.9,417.4,629.4,418.5,624.3,423.9z M660.6,363.7
	c12,1.3,14.8,8.1,10.8,18.7c3.1-0.7,5.3-1.7,7.6-1.7c10.8-0.2,3.2-20.7-4-23.2C667.3,354.9,665.2,358.5,660.6,363.7z M620,398.9
	c0.2,0.3,0.4,0.5,0.6,0.8c9-3.6,18.2-7,27-11c1.5-0.7,2.9-5,2.1-6.3c-1.2-1.9-4.3-3.3-7-1.2c-4.7,3.7-9.4,7.6-14.2,11.3
	C625.7,394.7,622.8,396.8,620,398.9z M625,344.5c10.7,1.3,20.9-6.6,24.4-17.7c-4.4,0.7-9.3,1.4-14.1,2.3c-0.9,0.1-2.1,0.3-2.4,0.9
	C630.2,334.7,627.7,339.5,625,344.5z M601.6,383.5c6.5,0,9.6-4.9,13.1-9.4C608,372.8,604.2,375.7,601.6,383.5z M490.9,319.4
	c5.4-5,6.1-10.8,1.7-16C490.6,308.7,487.6,313.7,490.9,319.4z M500.8,525.9c4.9-0.7,6.8-2.7,6.4-7.7c-0.5-6-5.3-7.8-9.6-9.9
	c-6.4-3.2-12.8-6.4-19.5-9.7c-1.8,1-4,2.2-5.7,3.1c-0.5,8.6-1,16.4-1.3,24.2c-0.1,2.4-0.5,5.4,0.7,7c1.8,2.4,4.7,4.3,7.5,5.6
	c2.9,1.3,4.1-1.3,5.6-3.4C488.8,529.9,494.3,526.9,500.8,525.9z M503.7,470.2c-5.2,3.3-10.1,7.3-15.6,10c-4.9,2.5-6.6,5.7-5.2,10.7
	c6,3.9,11.5,7.7,17.3,11.3c2.9,1.8,6,3.5,9.2,4.5c3.7,1.1,6.5-1.2,8.9-3.9c2.2-2.5,0-4.4-0.7-6.6c-2.1-6.3-2.6-12.7,0.7-18.7
	c1.4-2.7,1.1-4.4-0.9-6.5C513.5,467.2,509.1,466.8,503.7,470.2z M513.5,412.7c-12.8,5.7-20.3,17-18.2,26.8
	C507,434.7,510.4,424.5,513.5,412.7z M550.6,400c-6.9,7.4-15.6,11-26.2,11.7c5.3,10.5,6.1,20.8,2.7,31.9
	C538.2,436.9,553.9,406.9,550.6,400z M524.4,488.4c10.6,6.9,20.9,3.8,32.4-0.3C544.8,480.8,531.3,481.1,524.4,488.4z M538.1,365.6
	c-13.7,7.9-20.3,19.4-22.8,33.6C527.8,391.7,536.1,381.5,538.1,365.6z M521.7,574.9c0.3,14.5,4.9,26.9,17.6,36.6
	C539.3,595.6,532.7,584.2,521.7,574.9z M514.7,563.9c0.9-14-5.6-25.8-15.3-28.6C498.2,547.9,505.7,555.7,514.7,563.9z M525.2,657.2
	c-6.5-12.4-9.6-25-8.3-38.9c-4.9-2.3-9.8-4.6-14.8-6.9C498.7,627.7,509.3,649,525.2,657.2z M570.3,675.4c-4.8-1.5-9.6-3-14.4-4.4
	c-10-2.9-21.3-16.2-20.2-27.9c0.7-7.6,1.3-15.1,1.9-23H523c-3.5,12.2,3.5,34.7,16.2,46.3c6,5.5,28.3,12.5,32.2,10.2
	C571,676.1,570.7,675.5,570.3,675.4z M564.9,655.4c0.7-10.9-6.7-27.6-17-29.4C543.2,635.1,556.7,652.8,564.9,655.4z M551.8,575.4
	c-2.9-18.2-11.5-32.1-24.1-43.9c3,10.8,1.9,21.2-2.9,31.2C539.9,566,541,566.5,551.8,575.4z M558.2,578.7c-0.5,5-1.1,9.6-1.2,14.2
	c0,1.3,1.1,3,2.3,3.8c6,4.7,12.4,8.8,18.1,13.8c3.6,3.1,6.1,7.4,9.3,11.4C584.6,597.2,574,587.2,558.2,578.7z M553.9,557.6
	c-0.4,0.2-0.7,0.4-1.1,0.7c1.2,3.6,2.4,7.2,3.6,10.8c0.4,1.3,0.8,3,1.8,3.6c5.3,3.3,10.8,6.3,15.9,9.2
	C571.8,570.5,563.8,563.2,553.9,557.6z M586.9,515.8c-11.6-2.2-19.2-8.4-25.4-17.2c-6.2,9.9-14.8,15.3-25.1,18.7
	C553.1,522.1,569.6,522.7,586.9,515.8z M610.3,488.2c-14-7.4-27.2-6.8-40.6-1.3C582.7,493.4,595.8,495,610.3,488.2z M603,532.4
	c-5.2-3-10.6-6.2-16-9.3c-0.5-0.3-1.1-0.7-1.6-0.6c-4.6,1.1-9.2,2.3-14.9,3.7C581.4,533.1,592,535.3,603,532.4z M643.3,522.9
	c-1.8-0.3-2.9-0.6-4-0.6c-9.3-0.1-18.4-2.3-25.7-7.5c-7-5-11.5-3-16.7,1.6c-1.5,1.3-3.1,2.4-4.9,3.8
	C608.5,530.7,625.2,532.6,643.3,522.9z M683.8,492.2c-24.5,25.8-42.6,22.6-66,0.5c-2.7,4.5-5.4,8.9-8.2,13.6
	c10.8,7.6,22.7,11.2,35.8,10.7c4.5-0.2,9.9,0,13.4-2.3c8.6-5.7,16.4-12.6,24.4-19.2C683.8,495,683.6,493.3,683.8,492.2z M662,487.2
	c-9.8-6.1-28.3-7.5-34.1,0.3C634.6,494.8,653.6,494.6,662,487.2z M658.2,459.8c-9.9-2.9-20.1-3.1-30.2,0c-6.6,2-13.1,4.1-18.3,9
	c2.7,4.5,5.3,8.9,8.2,13.5c23.7-22.4,41.8-25,65.5,0.4c0-1.7-0.3-3.5-1.3-4.5c-4.7-4.3-9.5-8.4-14.4-12.4
	C664.7,463.5,661.7,460.8,658.2,459.8z M592,454.9c4,2.8,7.8,5.6,11.8,8c1.1,0.6,3.1,0.3,4.4-0.2c6.4-2.6,12.5-6,19-8.1
	c4.9-1.6,10.3-1.9,16.3-2.9C622.6,442.1,609,444.1,592,454.9z M570.5,448.7c5.7,1.5,10.3,2.7,15,3.8c0.4,0.1,1-0.4,1.5-0.7
	c5.4-3.1,10.8-6.3,16-9.3C592,439.5,581.5,441.8,570.5,448.7z M536.3,457.6c10.6,3.2,19.1,9.2,25.5,18.7c6-9.2,13.7-14.8,25-17.2
	C569.3,452.1,553,452.8,536.3,457.6z M573.4,393.5c-4.9,2.7-9.9,5.6-15,8.5c-0.5,0.3-1.2,0.6-1.3,1c-1.4,4.6-2.8,9.2-4.4,14.6
	C564.3,412.1,573.1,402.2,573.4,393.5z M585.9,352.6c-0.3,0.7-0.5,1.4-0.9,2c-6.6,10.5-15.4,18.6-26.6,24c-0.8,0.4-1.6,2-1.5,3.1
	c0.3,4.8,0.8,9.6,1.3,14.8C576,387,585.8,373.1,585.9,352.6z M547.2,360c2.7,4.8,5.2,9.2,8.1,14.4c3.9-2.5,7.7-4.4,11-7.1
	c10.2-8,19-18.1,20.2-31c1-10.4-2.6-21.2-4.3-31.8c-0.1-0.6-1.7-1-3.3-1.9C590.6,338.8,575.9,351.3,547.2,360z M548.1,349
	c10.2-2.5,16.9-16.8,17-29.7C555.4,323.2,543.2,340.6,548.1,349z M535.2,312.9c-9.4,9.3-16.2,34.7-12,41.9h15
	c-2-13.2-5.6-25.7,1.7-37.8c7.1-11.8,19.4-15.1,32.3-18.3C566,295.1,544.7,303.5,535.2,312.9z M502.3,363.4
	c5.1-2.4,10.1-4.8,14.9-7.1c-1.4-7.8-0.5-22.3,7.6-38.1C511.2,322.3,498.3,348,502.3,363.4z M485.9,378.8c2.7-2.8,5-5.2,7.3-7.7
	c1.2-1.3,3.1-2.8,3.2-4.3c0.4-6.4,0.1-12.7,0.1-18.7C488.8,355.6,484,368.3,485.9,378.8z M475.6,413.6c4.8-3.3,8.9-6.9,13.6-9.1
	c4.7-2.2,10.1-3.1,15-4.5c-1.2-4.7-3-9.5-3.4-14.4c-0.4-4.8,0.6-9.8,1.1-14.7C488,381.7,480.3,396.5,475.6,413.6z M470.8,448.3
	c0.7,8.1,1.1,16.2,1.6,24.8c1,0.6,2.7,1.7,4.6,2.4c1,0.4,2.4,0.3,3.3-0.1c5.8-2.8,11.6-5.7,17.3-8.8c2.9-1.6,5.9-3.3,8.1-5.7
	c2.4-2.6,2.3-6.2,0.5-9.2c-0.7-1.2-2.4-2.4-3.8-2.5c-7.8-0.8-13.8-4.2-18.3-10.7c-0.8-1.2-3-2.3-4.5-2.2
	C473.8,436.4,470.3,441.9,470.8,448.3z M478.7,258.5c0.9-2.8,1.2-5.1,2.2-6.9c1.7-3.1,0.7-5.2-2-6.9c-2.9-1.8-5.7-3.8-8.8-5.4
	c-3.4-1.7-15.8,5.4-16.2,9.1c0,0.4,0,0.9,0.2,1.3c0.9,2.7,1.9,5.4,3.2,9.1C464.5,248.6,471.7,250.1,478.7,258.5z M467.4,311.2
	c0.3,0,0.6,0,0.9,0c0.3-2.1,0.6-4.1,0.9-6.2c1.1-7.5,2.5-15,3.1-22.5c0.1-1.7-2.8-3.6-4.4-5.4c-1.6,1.8-4.6,3.7-4.4,5.3
	C464.3,292,466,301.6,467.4,311.2z M144.5,54.7c-9.5-4.2-19.5-5.7-29.9-4c-6.8,1.1-13.6,2.3-19.4,6.5c2.1,4.9,4.1,9.5,6.3,14.4
	c26.4-19.1,44.8-19.3,64.9,9c0.2-1.6,0.2-3.5-0.7-4.6c-4.1-4.9-8.3-9.6-12.7-14.2C150.5,59.2,147.8,56.1,144.5,54.7z M94.6,51
	c6.7-1.8,13.2-4.3,19.9-5.5c5.1-1,10.5-0.5,16.5-0.7c-19.4-12.3-33.1-12.1-51.4-3.7c3.6,3.3,6.9,6.6,10.6,9.5
	C91.1,51.4,93.2,51.4,94.6,51z M113.3,149.5c-2.2-7-4.6-8.4-14.2-8.7C101.9,146.7,107.3,148.1,113.3,149.5z M116.6,177.8
	c-6.2-3.6-12.6-7-18.8-10.5c-2-1.1-3.9-2.3-6.5-3.8c0.5,1.3,0.5,1.7,0.8,2c6.4,6.5,12.7,13,19.1,19.4c1.6,1.6,6.5,1.7,7.7,0.3
	C120.1,183.8,118.7,179,116.6,177.8z M311.1,424c-4.3-5.4-9.1-7.4-14.9-6.4C299.1,424,299.1,424,311.1,424z M265.5,551.7
	c-5.9,0-11.5,0-17,0c-0.5,0-1,0.5-1.3,0.9c-3.2,4.1-6.3,8.2-9.2,11.9C252.1,566,261.1,562.3,265.5,551.7z M311,551.4
	c-7.5-2.1-13.1,0.4-14.7,6.5C302,557.2,307.5,556.7,311,551.4z M413.1,620.1h-15.6c1.9,12.9,5.6,25.4-1.6,37.4
	c-7.1,11.9-19.4,15.4-31.9,18.5c0.4,0.7,0.7,1.5,1,2.2c13.2-3.3,27.1-5.8,36.3-17.3C410.8,649.1,414.8,635.1,413.1,620.1z
	 M399.4,516.8c-10.5-3-19.1-8.4-25.4-18.3c-6.2,9.2-14,14.9-24.3,17.2C360.9,522.3,388.7,523,399.4,516.8z M361.9,581.6
	c4.9-2.8,10.1-5.7,15.3-8.7c0.6-0.4,1.4-0.8,1.6-1.4c1.4-4.4,2.7-8.9,4.1-13.7C373.2,561.1,362.9,571.7,361.9,581.6z M354.1,312.2
	c0.5-2.3,1.5-4.6,1.6-6.9c0-0.3-0.1-3.4-0.7-2.6c-3.9,5.1-4.4,11.9-5.4,18c-0.3,1.6-0.5,3.3-0.7,4.9c-0.4,4.4-0.4,8.7,0.6,13.2
	c2.6,11.6,10.4,21.4,19.6,28.5c3.4,2.7,7.3,4.7,11.2,7.2c3-5.3,5.4-9.7,7.9-14.3c-0.2-0.1-0.3-0.1-0.5-0.2
	c-15.5-4.7-32.2-12.5-34.8-30.2C352.1,323.8,352.8,317.9,354.1,312.2z M433.7,363.6c1.2-21.4-5.5-34.5-22.5-45.7
	c2,6,4.7,12.1,6.1,18.4c1.4,6.4,1.4,13,2.2,20.6C423.5,358.8,428.5,361.1,433.7,363.6z M423.4,412.1c-0.5,14,6.4,25.7,16.2,28.1
	C440.4,427.5,432.7,420,423.4,412.1z M380.7,300.1c-2.7-0.9-5.5-1.6-8.3-2c-1-0.1-7.8,0.5-8.2,0.1c1.6,1.7,4.1,2.1,6.3,2.6
	c15.7,3.4,31.5,15.6,29.5,33.5c-0.7,6.7-1.4,13.3-2.2,20.4h14.9C417.6,332.1,402.2,307.1,380.7,300.1z M411.2,411.5
	c-11-0.3-19.3-4.5-26.7-12c-0.4,12.4,12.8,36.6,24,43.7C405,432.1,406.2,421.8,411.2,411.5z M379.7,488.1
	c11.5,4.2,21.8,7.3,32.4,0.3C405.2,481.1,391.7,480.8,379.7,488.1z M370.8,319.5c-1,10.4,6.3,27.4,17,29.5
	C391.8,339,379.4,322.6,370.8,319.5z M349.3,354.1c0.6,19.2,10.4,33.1,28.3,42.3c0.4-5.3,0.9-10.1,0.9-14.8c0-1.2-1.1-2.7-2.2-3.5
	c-4-2.8-8.5-4.9-12.1-8.2C358.9,365,354.1,359.2,349.3,354.1z M361.5,392.9c2.6,11.5,10.4,18.8,21.4,23.8c-1.1-3.3-2.2-6.6-3.3-9.9
	c-0.5-1.6-0.8-3.8-1.9-4.5C372.3,398.9,366.8,395.9,361.5,392.9z M349,459.1c11.3,2.4,18.9,8.2,25.1,17.2c6.2-9.9,15-15.3,25.3-18.8
	C382.8,453,366.4,451.9,349,459.1z M326.1,488.2c14.5,6.8,27.6,5.2,40.6-1.3C353.3,481.4,340.2,480.9,326.1,488.2z M383.8,576.2
	c7.4-8.4,16.3-12.3,27.3-13.2c-5.1-10.2-5.8-20.4-3.5-31.1C395.2,544.1,386.2,557.9,383.8,576.2z M371.2,655.4
	c10.1-5.1,20.7-20.6,16.6-29.4C377.6,628.7,368.4,644.9,371.2,655.4z M414.8,574.9c-11.1,9.3-17.7,20.8-17.6,36.6
	C409.9,601.7,414.5,589.4,414.8,574.9z M416,397.1c-1.3-14.4-6.9-26.4-20.3-35.2C396.8,377.7,404.2,388.7,416,397.1z M434.9,502.7
	c5.8-3.9,11.7-7.8,17.9-11.9c1-4.3,0.1-7.9-5.1-10.4c-5-2.4-9.4-6.1-14.1-9.1c-2-1.3-4.3-2.3-6.6-3.1c-4-1.4-6.9,0.9-9.5,3.5
	c-2.5,2.6-0.4,4.6,0.5,7c2.1,6,2.4,12.1-0.3,18c-2,4.3-1.3,6.9,2.9,9.1C426.3,508.7,430.6,505.6,434.9,502.7z M463.3,501.8
	c-1.7-1-3.9-2.1-5.7-3.2c-6.3,3.2-12.3,6-18.1,9.1c-3,1.6-6.1,3.3-8.7,5.5c-3,2.5-2.7,5.9-1.7,9.5c1,3.5,3.6,2.7,6.1,3.3
	c6.3,1.3,12,4,15.8,9.5c2.4,3.5,4.8,4.2,8.6,2.3c4.4-2.2,5.4-6.1,5.2-10.5C464.4,518.9,463.8,510.4,463.3,501.8z M457,436.2
	c-3.3-1-4.6,1.1-6.4,3.5c-3.9,5.3-9.4,8.4-16,9.1c-4.7,0.5-6.5,2.8-6.2,7.5c0.5,6,5.1,7.9,9.4,10.1c6.4,3.2,12.9,6.3,19.7,9.7
	c1.7-0.9,4-2.2,6.4-3.5c0-4.8,0-9.2,0-13.6c0.1-5.4,0.5-10.9,0.2-16.3C463.9,438.7,460.4,437.3,457,436.2z M460,413.6
	c-4.6-17.2-12.4-31.6-27.2-43.6c3.8,11.1,2.6,20.7-2,29.9c5.3,1.5,10.7,2.3,15.5,4.5C450.9,406.5,455,410.1,460,413.6z M439.4,362.5
	c-0.4,3.4-0.4,6.3,2.9,8.7c2.6,1.9,4.6,4.7,6.9,7.2c1-12-1.3-22.4-10.8-31c0.4,2.9,0.9,5.3,1,7.7C439.5,357.5,439.7,360,439.4,362.5
	z M444.8,319.4c3.1-5.6,0.2-10.6-1.8-16.1C438.8,308.7,439.7,315.2,444.8,319.4z M413.8,265.9c2.6,4,5.7,8.8,9,14
	c6.3-10.2,4.2-23.5-3.5-30.3C417.7,254.4,415.9,259.7,413.8,265.9z M382.9,231.4c3.9,4,8,7.8,12.3,11.8c10.5-17.9,3.8-26.9-8-38.3
	c-1.8,7.5-3.7,15.5-5.4,23.5C381.6,229.3,382.2,230.7,382.9,231.4z M319.4,206.1c0.5,0.8,1,1.1,1.5,1.3c11.5,4.8,23.7,7.8,34,15.5
	c15.1,11.1,21.2,22.9,19.4,41c-0.9,9.2-3.5,18.2-5.5,27.8c34.3,8.9,61.2,29.3,80,60.6c0.5-0.4,1-0.8,1.5-1.2
	c-3.7-9.3-7.3-18.6-11-27.9l0.1,0.1c-4.6-9.7-8.4-20-14.1-29.1c-9.2-14.6-17.2-29.9-29.9-42.2c-8.4-8.1-15.9-16.9-25.4-24
	c-14.2-10.6-30.3-17-47.1-21.9C321.8,205.8,320.5,206.1,319.4,206.1z M313.6,254.1c5.9,18.6,17.3,32.9,39.9,34.3
	c1.8-7.1,3.9-13,3.4-20.5c-0.5-7-2.5-13.8-5.8-20c-6.2-11.5-17.1-18.8-27.3-26.4c-4.3-3.2-9.1-5.7-14.3-8.9
	C307.7,227.5,309.5,241.3,313.6,254.1z M297.9,216.9c-1.5,6.2-3.4,12.3-4.5,18.6c-3,17.6-3.3,35.4,1.4,52.8
	c3,11.2,5.8,22.7,10.5,33.2c6.5,14.5,14.6,28.5,22.5,42.3c3.4,5.9,8.1,11.1,12.2,16.6l-0.1-0.1c6.3,8,12.5,15.9,18.8,23.9
	c0.6-0.2,1.2-0.4,1.8-0.7c-17.9-32-22.4-65.7-12.7-99.8c-9.8-3.3-19.4-5.7-28.1-9.7c-5.8-2.7-11.6-7.1-15.5-12.1
	c-9.8-12.6-10.4-27.8-8.6-43c0.8-7.3,2.6-14.5,4-21.7C298.9,217.2,298.4,217.1,297.9,216.9z M320.8,374c3.8,4.4,6.7,9.4,13.4,9.4
	C331.2,375.4,327.8,372.9,320.8,374z M286,326.5c5,12.4,13.2,18.8,24.6,18.1c-2.8-5.4-5.5-10.6-7.7-14.8
	C296.6,328.6,291.1,327.5,286,326.5z M292.6,302.1c-1.3-5.5-2.6-11.1-4-16.6c-0.2-0.8-1-1.9-1.8-2.1c-7.9-2.6-16-5-23.9-7.5
	c1.2,3.2,2.6,7.3,4.2,11.4c0.9,2.4,1.4,5.4,3.2,7C276.6,299.8,283.7,303.7,292.6,302.1z M298.1,193.3c1.1-13-8.1-30.5-20-34.1
	C275.7,172.7,288.2,189.9,298.1,193.3z M270,201.4c0.9,0.7,1.8,1.5,2.8,2c6.7,3.6,12.5,9.3,20.9,9.3c1.2-2.2,2.2-4.2,3.1-5.8
	c-6.9-3.6-13.7-7-20.4-10.5c-7.4-3.9-11-10.6-14.1-19c-0.4,2.5-0.5,4.3-0.9,5.9C259.1,191.8,263.6,197,270,201.4z M257.3,235.7
	c0,0.8,0.2,1.9,0.7,2.2c6.4,4.3,12.8,8.7,19.4,12.6c2.4,1.4,5.6,1.5,8.6,2.2c0.5-5.5,1-10.3,1.5-15.4c-12-0.5-21.1-6.5-30.2-13.9
	C257.3,228.3,257.3,232,257.3,235.7z M147.2,211.2c1.5-0.8,2.8-2.4,3.4-4c0.9-2.1,1.5-4.4,1.5-6.6c0-2.9,1.9-6.5-2.1-8.4
	c-2.5-1.2-5-2.1-7.2-3c-1,4.4-0.6,9.7-3.1,12.4c-2.4,2.7-7.7,2.8-11.8,4.1c1,1.4,2,2.8,2.9,4.3c3,5,4,5.4,9.6,3.7
	C142.7,212.9,145.2,212.4,147.2,211.2z M186.2,241.6c10.4-9.7,6.3-25.5,5.4-38.1c-4.8-1.3-9.3-2.4-13.6-3.6
	c1.9,0.5-0.7,23.1-1.9,25.5c-5.1,10.4-17.6,10.1-27.9,13c1.8,3.4,3.6,7,5.7,10.4c0.6,0.9,2.4,1.8,3.4,1.6
	C166.1,248.8,178.9,248.4,186.2,241.6z M228.4,242.7c0.2-2,3.4-38.2-1.3-37.7c-3.4,0.3-6.6,0.6-9.1,0.9c1.1,0.1-2.9,39.2-4.7,43.2
	c-8,18.4-31.9,21-48.9,27c-8.5,3,8.6,8.8,9.5,8.8c10.9,0.7,24.9-6.5,34.3-11.4c4.1-2.2,8.2-4.6,11.3-8.1
	C225.1,259.3,227.4,250.9,228.4,242.7z M274.1,362.8c-6.8-8.3-7.1-8.4-13.2-5.4c-2.4,1.2-4.9,2.4-7,4.2c-1.2,1.1-1.9,3.1-2.2,4.7
	c-0.4,1.9-0.5,4,0,5.8c0.7,2.9,1.3,6.4,3.3,8.1c2,1.6,5.6,1.3,8.2,1.7c0-4.3-1.4-9.1,0.4-12.2C265.4,366.6,270.3,365.1,274.1,362.8z
	 M315.7,399.1c-7.3-5.8-14.8-11.4-21.9-17.4c-2.5-2.1-4.5-1.2-6.6-0.4c-0.8,0.3-1.7,1.8-1.5,2.5c0.4,2.2,0.4,4.9,3.6,5.6
	c2.4,0.5,4.6,1.7,6.9,2.6c6.4,2.6,12.7,5.2,19.1,7.8C315.3,399.6,315.5,399.3,315.7,399.1z M365.5,423.3c-2.7-2.2-5.5-4.2-8-6.5
	c-11.3-10.3-23-20.2-33.6-31.2c-9.1-9.6-17-20.4-25.2-30.9c-5.4-6.9-10.8-14-15.1-21.6c-6.4-11.3-11.9-23-17.5-34.8
	c-5.1-10.8-9.9-21.8-10.5-34.1c-0.1-3.2-1.8-4.2-4.5-3.5c-7.3,2-14.7,4.1-21.9,6.4c-0.8,0.3-1.8,2.3-1.6,3.2
	c1.1,6.2,2.4,12.3,3.9,18.4c3.4,13.5,9.7,25.5,18.6,36.2c5.3,6.3,9.9,13.1,15.4,19.3c9.1,10.2,18,20.7,28.1,29.9
	c11.1,10.1,23.2,18.9,35.2,28C340.1,410.7,352,418.2,365.5,423.3z M332.7,442.5c5.2,3,10.6,6.2,16,9.3c0.5,0.3,1.1,0.8,1.5,0.7
	c4.6-1.1,9.2-2.4,14.9-3.8C354.2,441.8,343.6,439.4,332.7,442.5z M343.5,454.8c-14.8-10.9-36.8-12.1-50.9-2.8
	c1.2,0.3,2.1,0.7,3.1,0.7c8.4,0,16.9,1.2,23.4,6.2C329.3,466.5,336.2,461.4,343.5,454.8z M273.7,487.4c7.8,5.9,28,8.3,34.2-0.1
	C301.7,479.2,281.4,481.4,273.7,487.4z M306.6,515.3c6.9-2,13.7-4.3,19.3-9.2c-2.8-4.6-5.4-8.9-8.1-13.4
	c-10.2,8.2-19.1,17.5-33.2,17.4c-14.1-0.1-23.1-9-32.5-18c0,1.8,0.3,3.5,1.3,4.5c4.4,4.1,8.9,8.2,13.7,11.9
	c3.3,2.6,6.7,5.4,10.6,6.6C287.2,518,297,518,306.6,515.3z M343.6,519.9c-3.8-2.7-7.5-5.5-11.4-7.8c-1.2-0.7-3.4-0.5-4.8,0.1
	c-5.8,2.4-11.4,5.7-17.3,7.6c-5.5,1.8-11.4,2.4-17.1,3.5C307.9,532.2,330.6,530.8,343.6,519.9z M365.2,526.2
	c-5.6-1.4-10.2-2.6-14.9-3.8c-0.4-0.1-0.8,0.2-1.2,0.4c-5.6,3.3-11.3,6.6-16.4,9.6C343.7,535.4,354.3,533,365.2,526.2z M285.6,591.1
	c-0.1,0.7,0.6,2.1,1.3,2.3c2.3,0.8,4.6,2.3,7-0.4c1.8-2,4.1-3.5,6.3-5.2c5.2-4,10.4-8,16.5-12.7c-1.9,0.3-2.6,0.2-3.3,0.5
	c-8,3.2-15.9,6.6-24,9.5C286.3,586.3,286,588.6,285.6,591.1z M252.6,611c2.7,4.1,9.3,5.8,14.2,8.4c0.4,0.2,1.3-0.5,1.8-0.9
	c2-2.2,3.9-4.5,6.4-7.4c-12-1.3-14.7-8-10.9-18.3c-3.6,0.7-6.4,1.1-9.2,1.8c-0.7,0.2-1.8,0.9-1.9,1.4
	C252.7,601,250.4,607.4,252.6,611z M184.9,728.2c9.6-12.2,18.3-25.4,36.3-25.5c-3.2-1.6-6.2-3.3-9.5-4.2c-2-0.5-4.5-0.5-6.4,0.2
	c-9.1,3.2-14.9,10.7-21.5,17C178.5,720.8,178.7,723,184.9,728.2z M232.7,747.9c-16.1,8.1-30.1,0.6-44.5-5.4
	c-0.7,2.5-1.4,4.8-2.1,7.4c2.3,1.4,4.4,3.3,6.7,4c6.4,1.9,12.8,3.8,19.3,4.7c5.3,0.8,11.3,1.8,15.3-3.9
	C229,752.3,230.9,750.2,232.7,747.9z M235.4,723.1c-11.7-5.5-29.5-1-38.5,9.5C205.4,737.1,225.8,734.9,235.4,723.1z M287.4,736.5
	c-0.4-4.3-0.9-9.1-1.4-13.9c-6.5,0-18.2,5.4-24.3,11.2c-1.5,1.4-4.1,2.7-4.4,4.3c-0.6,4-0.2,8.2-0.2,12.7c5.1-3.4,9.4-6.9,14.2-9.2
	C276.3,739.4,281.7,738.3,287.4,736.5z M292.6,672.7c-8.9-1.5-16.8,1.5-21.9,7.8c-4.2,5.2-5.6,12.6-8.3,19.1c0.3,0.2,0.7,0.4,1,0.6
	c3.7-2,7.2-4.4,11-5.8c3.9-1.4,8.1-1.8,12.2-2.8c0.7-0.2,1.7-1.2,1.9-1.9C289.9,684,291.2,678.3,292.6,672.7z M310.6,630.4
	c-10.9-1.5-18.4,4.3-24.5,17.5c4.7-0.7,9.8-1.4,15-2.2c0.6-0.1,1.5-0.4,1.8-0.9C305.5,640.2,308,635.4,310.6,630.4z M334.5,591.2
	c-6.9,0.4-10.1,5-13.6,9.7C328.1,602,329.9,600.7,334.5,591.2z M366.1,551c-0.2-0.2-0.4-0.5-0.5-0.7c-4.3,2.3-8.8,4.1-12.8,6.8
	c-13.4,9.1-26.9,17.9-39.6,27.8c-11.1,8.5-21.8,17.6-31.6,27.5c-9.7,9.8-18.4,20.7-27,31.5c-9.7,12.2-18.8,24.9-22.4,40.5
	c-1.6,6.8-3.2,13.6-4.6,20.5c-0.2,0.8,0.9,2.6,1.7,2.8c7.1,2.3,14.3,4.4,21.5,6.4c3.5,1,4.6-0.8,5.1-4.3c0.8-5.8,2-11.7,4-17.2
	c3.3-9,7.1-18,11.3-26.6c5.1-10.5,10-21.3,16.7-30.7c11.7-16.4,24.2-32.5,37.6-47.5c9.8-11,21.8-20.1,32.9-30
	C360.8,555.3,363.5,553.2,366.1,551z M349,622.6c1.3-1.9,2.1-2.9,2.8-4.1c4.9-7.8,11.2-15,19.4-18.5c8.5-3.6,7.6-9.3,6.9-15.8
	c-0.2-1.8-0.7-3.5-1.1-5.3C360.9,587.7,351.1,597.6,349,622.6z M366.8,624.2c6.9-3.4,13.9-6.6,21.2-10.1c-2.2-4-4.8-8.5-7.2-12.9
	c-14.5,4.3-33,26.2-32.4,42.8c0.5,13.3,4.1,26.6,8,27.5c-1.3-5.8-2.7-11.2-3.7-16.7C351,645.4,355.4,629.8,366.8,624.2z M294.8,721
	c-0.2,3.7-0.1,7.3,0.3,10.9C295.5,728.3,295.3,724.7,294.8,721z M331.9,734.7c10.8-7.3,16.1-18.1,17.5-32.7c-0.5-1-0.9-4.3-2.5-5.1
	c-1.4-0.6-3.7-0.1-5.5,0.7c1.6,7.4,2.1,14.6,0.3,21.2c-0.1,0.3-0.2,0.6-0.3,0.9c0,0.1,0,0.1,0,0.1c-1.7,5.2-5.3,9.7-9.1,14.5
	C332.1,734.5,332,734.6,331.9,734.7z M341,277c1.6,1,4.4,1.8,5.7,1.1c1.6-0.9,2.1-3.5,2.6-4.5c-1.1-15.8-6.9-27.5-19.7-35
	c-1.6-0.9-4.5-1.4-5.9-0.6c-1.4,0.8-2.5,3.6-2.4,5.5C322,258.1,328.4,269.5,341,277z M733.2,477.8c-7.9-0.6-14.9,1.8-21.5,5.8
	c-3.3,2.1-3.3,5.3-0.1,7.6c7.5,5.2,18.3,7.1,28.1,5.5c2.3-4.6,4.6-10.3,6.3-17C742,478.1,737.7,477.3,733.2,477.8z M447.3,774.9
	c-2.5-2.2-5-4.4-7.5-6.6c-0.9-0.8-1.1-3-0.7-4.3c1.2-3.6,2.9-7.1,4.3-10.3c3.2,2.3,6.3,4.6,9.4,6.9c1.7-9.6,0.6-20.1-1.1-30
	c-0.6-3.6-1.3-7.2-2-10.8c-4,12-8.5,23.9-13.2,35.7c-3,7.6-6.6,15.1-11.2,21.8c-4.3,6.2-9,12.2-14.5,17.5c3-0.4,5.9-1,8.7-1.7
	c1.5-1.6,2.8-3.1,4-4.3c1,0.7,1.9,1.4,2.9,2.1c6.2-2.5,11.6-5.9,16.1-10.3C444.5,778.8,446,776.9,447.3,774.9z M559.8,741.3
	c-1.7,1.8-3.6,3.4-5.9,4.7c0.1-0.7-0.3-1.8-0.8-2.3c-3.9-4.2-8-8.2-12.1-12.4c-4.9,7.6-6.4,13.7-5.4,19.2c-2.9,0.3-5.8,0.5-8.8,0.7
	c-3.4-4.9-6.7-9.9-10.2-14.8c-9.6-13.5-15.5-28.9-21.7-44.2c-4.5-11-8.7-22.1-12.2-33.4c0.4-1.3,0.8-2.7,1.2-4
	c1.4-4.7,2.7-9.5,4-14.3c0.5-1.9,1.1-3.9,1.6-5.8c0.1,0.4,0.3,0.8,0.4,1.2c8.2,23.5,19.8,45.4,33.8,65.9c5.4,7.8,11.5,15.1,18,22
	C547.4,729.9,553.5,735.7,559.8,741.3z M491,655.1c-3.3,6-0.4,11,1.7,16.4C497.1,666,496.7,662.2,491,655.1z M521.9,709
	c-2.6-4.1-5.6-8.8-8.9-14.1c-6.6,9.6-5.1,19.9,3.4,30.4C518,720.4,519.8,715,521.9,709z M345,785.1c-10.3-3.7-17.6-9.2-21.4-15.6
	c4.2,0,8.3-3.3,12.1-4.6c4.7-1.7,9.3-3.5,13.8-5.6c10-4.7,19.4-10.6,27.5-18c19.3-17.4,35-37.7,48-60.1c4.7-8.1,8.9-16.4,12.6-25
	c1.1,5.7,2.2,11.5,3.4,17.5c0.8,4.1,1.6,8.1,2.4,12.2c-2,4.8-4,9.6-5.9,14.4c-3.3,8.1-6.7,16.4-11.1,23.9
	c-6.9,11.7-14.6,22.8-22.4,34c-6.4,9.3-13.6,18-22.9,24.6c-2.8,2-3,3.6-0.9,5.8c2.1,2.2,4.3,4.3,6.5,6.5c-10.9-1.1-21.2-3.5-29.6-6
	c0.5-5.2,1.1-10.4,1.1-15.6c0-3.7-1.4-7.4-2.2-11.5c-5.3,2.4-9.8,4.5-14.5,6.6c3,5.5,4.3,11,4.5,16.8
	C345.6,785.3,345.3,785.2,345,785.1z M413.8,709c2.1,6.3,3.9,11.6,5.5,16.5c8.3-10.4,9.9-21.4,3.3-30.4
	C419.4,700.2,416.3,705.1,413.8,709z M382.1,747.5c2.6,6.5,4.3,13.1,3.8,20.1c-0.1,1,0.3,2,0.6,3.9c3.3-4.1,6-7.5,8.6-10.8
	c1.4-1.8,3.6-3.4,4.1-5.5c1.9-8.3,1.3-16.4-4.2-23.5c-4.2,4-8.4,7.9-12.4,12C381.9,744.5,381.7,746.5,382.1,747.5z M588.8,278
	c1.6,0.7,4.4-0.1,6.1-1.1c0.7-0.5,1.4-1,2.1-1.5c-3.6-1.1-7.1-1.9-10.7-2.6c0,0.2-0.1,0.5-0.1,0.7
	C586.7,274.5,587.3,277.3,588.8,278z M127.4,271.7c2.4,7.8,4.6,15.7,5.5,23.8c-0.9-0.5-2.2-1.2-3.5-1.8c-0.8-0.4-1.5-0.8-2.2-1.2
	c-0.7-3.1-1.5-7-2.5-10.8c-0.6-2.5-0.7-5.6-2.2-7.4c-4.8-5.6-10.5-9.8-17.8-10.6c-1.3-1.1-2.5-2.1-3.7-3.3c-2.4-2.3-4.8-4.8-7.2-7.5
	c-0.8-3.3-1.6-6.6-2.4-9.9c-3.6-13.6-9.1-26.7-14.4-39.8c5.2,1.1,12.3,5.4,20.2,10.4c1.8,1.1,3.4,2.2,4.2,2.6
	c1.7,0.9,3.3,1.7,4.9,2.6c3.9,7.3,7.7,14.6,10.9,22.2C121.3,250.9,124.2,261.4,127.4,271.7z M111.6,240.3c-2.1-4.5-3.5-10.3-7-14.1
	c-3.5-3.8-9.2-5.4-14-8c-0.4,0.5-0.9,1.1-1.3,1.6c1.7,4.8,3.5,9.7,5.3,14.5c0.3,0.7,1.1,1.4,1.8,1.6
	C101.4,237.4,106.5,238.9,111.6,240.3z"/>
</svg>
