<?xml version="1.0" encoding="UTF-8"?>
<!DOCTYPE svg  PUBLIC '-//W3C//DTD SVG 1.1//EN'  'http://www.w3.org/Graphics/SVG/1.1/DTD/svg11.dtd'>
<svg width="260.91mm" height="200.06mm" clip-rule="evenodd" fill-rule="evenodd" image-rendering="optimizeQuality" shape-rendering="geometricPrecision" text-rendering="geometricPrecision" version="1.1" viewBox="0 0 24122 18496" xml:space="preserve" xmlns="http://www.w3.org/2000/svg">
 <defs>
  <style type="text/css">
   <![CDATA[
    .fil9 {fill:#FEFEFE}
    .fil0 {fill:#D2E28B}
    .fil4 {fill:#AFBD77}
    .fil1 {fill:#C7D682}
    .fil2 {fill:#744C39}
    .fil16 {fill:#87AD4A}
    .fil3 {fill:#4A422C}
    .fil8 {fill:#695D3D}
    .fil7 {fill:#7D6F4A}
    .fil12 {fill:#80724A}
    .fil5 {fill:#8C7E57}
    .fil6 {fill:#A39469}
    .fil10 {fill:#BFAD7C}
    .fil15 {fill:#D4C6A7}
    .fil14 {fill:#DED1B4}
    .fil13 {fill:#F0E4C8}
    .fil11 {fill:#4A422C;fill-rule:nonzero}
   ]]>
  </style>
 </defs>
  <path class="fil0" d="m21136 16414s-335-77-476-164c-102-64 223 11 404 55-102-75-222-187-150-185 34 1 83 30 131 66-100-121-221-291-218-404 5-193 399 534 399 534s-48-265 4-282c53-17 58 282 58 282s51-443 245-470c150-20-47 293-141 432 89-41 240-63 220-29-11 19-61 44-113 66 57-7 105-4 97 24-16 51-157 75-209 82 85 6 277 23 237 41-18 8-50 11-84 11l135 39-910-102 371 4z"/>
  <path class="fil0" d="m20084 16080s-519-118-737-253c-159-99 345 16 626 85-158-117-344-290-233-286 54 1 129 46 203 101-155-188-342-450-338-626 8-299 619 828 619 828s-75-412 6-438 90 438 90 438 79-687 379-728c233-32-72 453-218 669 138-64 371-98 340-45-17 29-93 68-174 101 87-9 163-6 149 38-24 80-242 116-322 127 130 10 428 37 366 64-27 12-77 16-130 16l209 61-1410-157 575 5z"/>
  <path class="fil0" d="m4653 16010s530-54 763-161c170-79-344-27-632 7 172-96 377-245 266-255-53-5-133 30-213 75 177-167 394-404 412-579 30-298-716 746-716 746s125-400 48-436c-78-35-143 424-143 424s6-692-286-770c-228-60 15 459 133 691-129-80-356-143-332-87 14 32 85 79 161 123-86-21-161-26-153 19 14 82 226 145 304 165-130-6-429-16-371 19 25 16 74 26 127 32l-215 34 1419 18-572-65z"/>
  <ellipse class="fil0" cx="11925" cy="16990" rx="10441" ry="1507"/>
  <path class="fil1" d="m11925 15483c2994 0 5693 182 7597 473 175 136 203 296 203 340 0 81-408 0-408 154 0 155 918 322 0 733s-2533 915-6388 1125-6380-360-7756-738-472-1120-759-1274 983-370 983-370 478-89 1181-231c1564-134 3392-212 5347-212z"/>
   <path class="fil2" d="m3261 13983s186-430 44-882c-141-452-385-1005-385-1005s-49-129 102 0c150 128 451 925 518 1357 67 433-279 530-279 530z"/>
   <path class="fil3" d="m2412 16433s446-304 528-468c81-163-290-1100-350-1293-22-73 71-199 215-363l10-12c8-25 6-106-90-365-141-380-577-1247-577-1247s19-47 94 0 618 1349 766 1399c219-238 378-353 645-817 267-463 340-499 355-893s33-467 135-459c103 7 90 364 30 728-59 364-661 1553-721 1717-59 163-178 513-74 758s699 1330 699 1330c186 299-1764 324-1665-15z"/>
   <path class="fil3" d="m3565 9067c-14-21-64-64 23-297 93-253 360-1011 360-1011s-15-38-74 0c-49 30-1080 2370-1166 96-11-311-26-369-107-363s-70 288-23 576c45 278 276 844 334 999h653z"/>
   <path class="fil4" d="m2974 12452s86 126 20 192-191-46-191-46 11 125-91 144c-103 18-134-56-134-56s53 136-52 183c-106 46-214-102-214-102s-28 195-186 195c-159 0-162-183-162-183s-40 152-74 115-56-109-56-109-25 180-152 155-80-161-80-161-109 205-165 133c-56-71-31-127-31-127s-65 124-186 103c-121-22-74-174-74-174s-109 155-213 91c-103-65-29-252-29-252s-106 74-116 32 13-93 13-93-29 90-145 19c-117-71-20-158-20-158s-93 68-119 26 35-110 35-110-300 148-307-3c-6-152 88-165 94-163 0 0-207 13-178-74s87-87 87-87-112 42-122-58 64-91 64-91-222 5-186-130c36-134 107-137 107-137s-74-12-50-71c23-60 65-69 65-69s-86 42-101-146 113-110 113-110-77 9-39-134c39-144 105-63 105-63s-60 3-21-143 125-69 125-69-304-254-221-383c82-130 480-53 480-53s-62-30 0-86 115-20 115-20-100-33-112-145 38-327 177-268c138 59 174 186 174 186s-74-148 20-183c95-36 139 35 139 35s-133-267 55-391c187-124 281 63 281 63s-53-63-3-100c51-37 107 24 107 24s-144-146-39-233 279 24 279 24-117-358 226-380 325 243 325 243-4-226 131-195c134 30 173 95 173 95s-74-238 87-208c160 30 208 152 208 152s-113-482 156-451c269 30 291 420 291 420s69-286 264-203c196 82 122 273 122 273s39-226 265-143c225 82 125 277 125 277s122-182 183-86c60 95 26 173 26 173s-35-121 173-39 95 178 95 178 285-351 451-173c165 177 4 415 4 415s68-81 145 4 52 157 52 157 113-185 335-89c222 97-56 323-56 323s108-77 177 24 12 153 12 153 145-141 298 65c154 206-12 278-12 278s437-76 413 172c-23 247-109 209-109 209s185 76 152 128-109 76-109 76 376 86 293 321c-83 236-237 32-237 32s85 106 6 144c-78 38-121-8-121-8s228 126 76 287c-151 162-322 76-322 76s57 76-38 114-152 19-152 19 67 43 15 123c-53 81-190 29-190 29s57 123-19 218c-76 94-289-19-289-19s80 128-14 123c-95-5-138-52-138-52s109 80 33 185c-75 104-308-48-308-48s100 152-75 190c-176 38-223-90-223-90s41 155-132 150c-172-4-196-303-196-303s-46 136-149 70c-102-65-70-177-70-177s28 219-163 196-177-280-177-280 51 140-89 126c-139-14-135-144-135-144s24 167-79 219c-103 51-270-140-270-140s42 32 28 116-254-64-254-64z"/>
   <path class="fil0" d="m1215 8272s-234 131-280 5c-47-126 89-126 82-133 0 0-227 34-218-48 10-82 49-145 49-145s-150 48-165-58c-14-106 213-130 213-130s-198-184-48-305c149-121 372 24 372 24s-131-97-58-126c72-29 203 44 203 44s-135-145 10-266 280 82 280 82-82-130 29-188 232 24 232 24-232-276-53-421 537 179 537 179-73-179 77-203 275 150 275 150-33-247 213-314c247-68 276 314 276 314s92-160 208-126 101 150 101 150 15-208 247-188c232 19 208 285 208 285s53-116 169-39 92 165 92 165 72-194 270-126c199 67 68 309 68 309s160-130 281-19c120 111-29 169-29 169s183-101 324 34c140 135 29 208 29 208s149-116 174-10c24 107-116 169-116 169s135 25 101 92c-34 68-251 29-251 29s77 44 34 97c-44 53-208-19-208-19s29 62 0 116c-29 53-286-39-286-39s73 126-19 184-203-160-203-160 48 126-82 126c-131 0-140-111-140-111s29 120-131 140c-160 19-184-82-184-82s44 130-29 169c-72 39-174-121-174-121s34 126-135 131c-169 4-116-87-116-87s46 141-124 178c-171 38-130-145-130-145s26 82-72 108c-98 25-101-86-101-86s25 142-86 149c-110 6-145-104-145-104s35 75-60 116c-94 41-151-85-151-85s12 85-63 117c-76 32-83-92-83-92s-3 130-120 155c-116 25-145-114-145-114s-19 171-117 133c-97-38-120-133-120-133s16 70-75 105c-92 34-108-86-108-86s-6 124-129 108-149-104-149-104 32 69-69 78c-101 10-98-110-98-110s-22 55-101 13c-78-42 17-132 17-132z"/>
   <path class="fil3" d="m20715 13983s186-430 44-882-385-1005-385-1005-49-129 101 0c151 128 452 925 519 1357 66 433-279 530-279 530z"/>
   <path class="fil3" d="m19866 16433s445-304 527-468c82-163-290-1100-349-1293-22-73 70-199 214-363l10-12c9-25 7-106-89-365-141-380-577-1247-577-1247s19-47 94 0 618 1349 766 1399c219-238 378-353 645-817 267-463 340-499 355-893s33-467 135-459c103 7 89 364 30 728-60 364-662 1553-721 1717-59 163-178 513-74 758s698 1330 698 1330c187 299-1764 324-1664-15z"/>
   <path class="fil3" d="m21018 9067c-13-21-63-64 23-297 94-253 361-1011 361-1011s-15-38-74 0c-49 30-1080 2370-1166 96-12-311-26-369-107-363s-71 288-24 576c46 278 277 844 335 999h652z"/>
   <path class="fil4" d="m20428 12452s86 126 20 192-191-46-191-46 11 125-92 144c-102 18-133-56-133-56s53 136-53 183c-105 46-214-102-214-102s-27 195-186 195c-158 0-161-183-161-183s-40 152-74 115-56-109-56-109-25 180-152 155-81-161-81-161-108 205-164 133c-56-71-31-127-31-127s-65 124-186 103c-121-22-75-174-75-174s-109 155-212 91c-103-65-29-252-29-252s-107 74-116 32c-10-42 13-93 13-93s-29 90-146 19c-116-71-19-158-19-158s-94 68-120 26c-25-42 36-110 36-110s-300 148-307-3c-6-152 87-165 93-163 0 0-206 13-177-74s87-87 87-87-113 42-122-58c-10-100 64-91 64-91s-222 5-186-130c35-134 107-137 107-137s-75-12-51-71c24-60 66-69 66-69s-87 42-102-146c-14-188 114-110 114-110s-78 9-39-134c39-144 104-63 104-63s-59 3-20-143c38-146 125-69 125-69s-304-254-222-383c83-130 481-53 481-53s-62-30 0-86 115-20 115-20-101-33-112-145c-12-112 38-327 177-268 138 59 173 186 173 186s-73-148 21-183c94-36 139 35 139 35s-133-267 54-391c188-124 281 63 281 63s-52-63-2-100 107 24 107 24-144-146-39-233c104-87 279 24 279 24s-117-358 226-380 325 243 325 243-4-226 130-195c135 30 174 95 174 95s-74-238 87-208c160 30 208 152 208 152s-113-482 156-451c269 30 291 420 291 420s69-286 264-203c195 82 122 273 122 273s39-226 264-143c226 82 126 277 126 277s122-182 182-86c61 95 26 173 26 173s-34-121 174-39 95 178 95 178 285-351 450-173c166 177 4 415 4 415s69-81 146 4c76 85 52 157 52 157s113-185 335-89c221 97-57 323-57 323s109-77 178 24c68 101 12 153 12 153s145-141 298 65-12 278-12 278 437-76 413 172c-24 247-109 209-109 209s185 76 152 128-110 76-110 76 376 86 294 321c-83 236-237 32-237 32s84 106 6 144-121-8-121-8 228 126 76 287c-152 162-322 76-322 76s56 76-38 114c-95 38-152 19-152 19s66 43 14 123c-52 81-189 29-189 29s57 123-19 218c-76 94-289-19-289-19s80 128-15 123c-94-5-137-52-137-52s109 80 33 185c-76 104-308-48-308-48s100 152-76 190c-175 38-222-90-222-90s40 155-132 150c-173-4-196-303-196-303s-46 136-149 70c-103-65-70-177-70-177s28 219-163 196-177-280-177-280 51 140-89 126-135-144-135-144 23 167-79 219c-103 51-271-140-271-140s42 32 28 116-253-64-253-64z"/>
   <path class="fil0" d="m18669 8272s-234 131-281 5c-46-126 89-126 83-133 0 0-228 34-218-48s48-145 48-145-150 48-164-58c-15-106 213-130 213-130s-199-184-49-305 373 24 373 24-131-97-58-126c72-29 203 44 203 44s-136-145 9-266 281 82 281 82-82-130 29-188 232 24 232 24-232-276-53-421c178-145 536 179 536 179s-72-179 78-203c149-24 275 150 275 150s-34-247 213-314c246-68 275 314 275 314s92-160 208-126 102 150 102 150 14-208 246-188c233 19 208 285 208 285s54-116 170-39 91 165 91 165 73-194 271-126c198 67 68 309 68 309s159-130 280-19-29 169-29 169 184-101 324 34 29 208 29 208 150-116 174-10c24 107-116 169-116 169s136 25 102 92c-34 68-252 29-252 29s78 44 34 97c-43 53-208-19-208-19s29 62 0 116c-29 53-285-39-285-39s73 126-19 184-203-160-203-160 48 126-83 126c-130 0-140-111-140-111s29 120-130 140c-160 19-184-82-184-82s44 130-29 169-174-121-174-121 34 126-135 131c-170 4-116-87-116-87s46 141-124 178c-171 38-130-145-130-145s25 82-73 108c-97 25-101-86-101-86s26 142-85 149c-110 6-145-104-145-104s35 75-60 116-152-85-152-85 13 85-63 117-82-92-82-92-3 130-120 155-145-114-145-114-19 171-117 133-120-133-120-133 16 70-76 105c-91 34-107-86-107-86s-6 124-129 108c-124-16-149-104-149-104s32 69-69 78c-101 10-98-110-98-110s-22 55-101 13 17-132 17-132z"/>
  <path class="fil5" d="m4897 10849c334 442 985 780 1196 883-239-656-405-1320-490-1992-64-513-81-1030-46-1553-234 334-523 797-698 1269-188 504-245 1019 38 1393z"/>
  <path class="fil6" d="m7321 15817zm103-401c-55 28-90 98-108 172-18 76-18 157-3 207 2 8 5 16 8 22 29 57 73 68 99 70 31-43 56-94 73-154 17-58 26-124 27-200l-8-2s4-10 8-24c-1-29-3-60-7-93-11-12-32-16-67-6-8 2-15 5-22 8z"/>
  <path class="fil6" d="m7305 15826zm-7-242c19-79 57-153 118-184 8-4 16-7 24-10 32-9 54-9 70-4-6-47-14-92-24-134-9-4-20-5-31-4-26 3-56 21-88 48-33 27-67 65-99 108-99 134-177 321-131 429 54 127 147 146 193 147l3-3c27-21 52-45 74-73-30-4-73-22-102-78-4-8-7-16-10-26-15-53-15-137 3-216z"/>
  <path class="fil6" d="m7453 15230zm-333 610c-48-115 31-309 133-447 33-44 68-83 102-111 34-30 68-48 98-52 9-2 19-1 27 1-7-30-16-58-25-84-119 23-288 135-421 274-73 75-134 157-171 237-36 77-49 151-26 211 14 37 42 70 87 97 128 76 281 66 344 58 13-9 26-18 40-28-54-7-138-38-188-156z"/>
  <path class="fil6" d="m20457 11904c635-1430 1034-3663 575-5819-344-1614-1169-3184-2736-4343-104-68-211-135-318-200-2252-1356-4613-1630-6517-1400-1888 228-3325 948-3760 1595 41 175 86 366 149 556 426-219 896-374 1404-458 280-46 572-70 874-70 660-543 1462-589 1922 219 77 18 433 109 789 312 314 180 508 347 577 411 357-645 1129-2031 1187-2060 664-332 2494 1438 2836 2055 412 744 624 1515 590 1672-35 159-370 385-630 540 306-95 719-213 784-174 60 36 352 547 506 1443 87 501 133 1125 74 1856-91 1140-687 3514-1477 4575-93 126-186 221-244 221-91 0-479-437-673-662l388 1233-13 4c-13 49-127 183-660 549-305 209-595 378-837 504-358 186-618 281-680 281-73 0-97-48-179-207-66-129-173-339-380-672-409-660-1658-1631-1812-1749-67 7-142 9-222 0-156-17-241-63-286-106-181 1148-478 2314-961 3207 51-19 138-36 282-33 199 4 351 42 430 67 20-504 27-1075 39-1186 1 4 127 1159-27 1932-5 22-8 42-12 61-58 357-3 727 200 1034 56 83 123 162 201 235 59-97 224-358 489-712 77-103 150-174 219-220 90-61 172-81 244-78 73 4 135 33 184 70 40 30 72 65 94 98 55 81 100 159 126 207 65-99 135-176 205-233 146-119 296-153 403-121 94 28 203 156 301 328 24 41 46 84 68 128 58-119 187-356 331-428 108-54 253-61 418 11 133 59 281 171 434 354 274 329 439 716 487 839 350-118 638-277 816-481 351-402 494-916 483-1443-5-244-253-1226-492-1735 177 261 321 560 418 875 129-62 465-268 995-898 150-178 520-625 906-1226-1 1-149 435-853 1271-545 646-895 857-1028 919 75 259 118 527 123 793 2 98-1 195-10 292 68-48 179-117 262-117 70 1 148 36 214 118 54 66 101 163 131 299 51 227 40 454 32 547 39-7 77-14 115-22 289-59 557-155 707-297 278-264 318-628 362-1014 12-115 26-232 45-350 52-310 138-492 433-1115 201-425 501-1058 955-2082z"/>
  <path class="fil7" d="m20457 11904c635-1430 1034-3663 575-5819-344-1614-1169-3184-2736-4343-104-68-211-135-318-200-1893-1140-3863-1515-5574-1469-658 447-732 1092-700 1499 128 99 245 235 346 412 77 18 433 109 789 312 314 180 508 347 577 411 357-645 1129-2031 1187-2060 664-332 2494 1438 2836 2055 412 744 624 1515 590 1672-35 159-370 385-630 540 306-95 719-213 784-174 60 36 352 547 506 1443 87 501 133 1125 74 1856-91 1140-687 3514-1477 4575-93 126-186 221-244 221-91 0-479-437-673-662l388 1233-13 4c-13 49-127 183-660 549-305 209-595 378-837 504-358 186-618 281-680 281-73 0-97-48-179-207-66-129-173-339-380-672-409-660-1658-1631-1812-1749-67 7-142 9-222 0-156-17-241-63-286-106-181 1148-478 2314-961 3207 51-19 138-36 282-33 199 4 351 42 430 67 20-504 27-1075 39-1186 1 4 127 1159-27 1932-5 22-8 42-12 61-58 357-3 727 200 1034 56 83 123 162 201 235 59-97 224-358 489-712 77-103 150-174 219-220 90-61 172-81 244-78 73 4 135 33 184 70 40 30 72 65 94 98 55 81 100 159 126 207 65-99 135-176 205-233 146-119 296-153 403-121 94 28 203 156 301 328 24 41 46 84 68 128 58-119 187-356 331-428 108-54 253-61 418 11 133 59 281 171 434 354 274 329 439 716 487 839 350-118 638-277 816-481 351-402 494-916 483-1443-5-244-253-1226-492-1735 177 261 321 560 418 875 129-62 465-268 995-898 150-178 520-625 906-1226-1 1-149 435-853 1271-545 646-895 857-1028 919 75 259 118 527 123 793 2 98-1 195-10 292 68-48 179-117 262-117 70 1 148 36 214 118 54 66 101 163 131 299 51 227 40 454 32 547 39-7 77-14 115-22 289-59 557-155 707-297 278-264 318-628 362-1014 12-115 26-232 45-350 52-310 138-492 433-1115 201-425 501-1058 955-2082z"/>
  <path class="fil8" d="m13917 13731c-478-651-1577-1505-1721-1615-67 7-142 9-222 0-156-17-241-63-286-106-181 1148-478 2314-961 3207 51-19 138-36 282-33 199 4 351 42 430 67 20-504 27-1075 39-1186 0 2 43 392 49 869 93-153 436-647 1182-1004 655-314 1046-254 1208-199z"/>
  <path class="fil6" d="m14423 6382c397 419 607 946 621 1559 14 611-169 1307-558 2065 155 254 302 557 411 869 213 606 287 1244 12 1616-11 15-22 29-34 42-66 77-143 135-230 178-303 147-714 98-1111-42-392-139-772-367-1016-577-18-15-35-31-51-46-33 14-94 37-174 54 101 78 1349 1043 1774 1728 208 334 316 547 383 677 66 131 86 170 117 170 54 0 300-93 648-274 241-125 528-292 830-500 643-441 675-451 676-451l-23-2-7-22-439-1396-53-166 112 134c2 2 641 767 731 767 33 0 107-83 188-192 782-1050 1374-3410 1464-4539 58-725 13-1343-73-1839-151-874-420-1363-474-1396-75-45-1060 289-1063 290l-445 150 418-214c3-1 854-435 904-666 32-147-178-893-583-1623-326-590-2131-2334-2744-2027-138 105-1040 1956-1396 2321 1-1 56-101 144-260-51-49-244-223-578-414-392-224-783-307-784-308l-15-3-8-14c-424-780-1143-763-1762-266 185 3 373 15 565 36-371 10-997 40-1176 56-122 12-241 27-359 47-1086 178-1999 692-2671 1456-673 765-1107 1782-1234 2964-66 609-51 1262 54 1948 54-80 105-154 153-221 47-561 154-1128 326-1702-22 11-45 17-69 17-110 0-199-124-199-277 0-28 3-55 8-80 14 47 45 80 80 80 49 0 89-62 89-139 0-52-19-98-46-122 21-11 44-17 68-17 84 0 156 74 185 177 13-36 25-72 38-107-8-74-18-128-85-254-21-38-48-65-79-80-32-16-68-20-104-13-37 8-74 28-107 61-47 47-86 118-105 215-59 288 43 497 60 529 9 3 18 5 25 8 55 20 170 128 172 193-51-80-114-129-186-154-73-26-155-29-243-17 53-39 120-46 176-40-34-78-101-275-50-528 22-107 66-186 119-239 39-39 84-63 129-73 47-9 93-4 134 16 40 20 74 53 99 100 40 75 59 151 66 217 82-222 173-446 275-671-72 295-272 861-324 1019-396 1217-494 2402-347 3561 183 1459 756 2877 1618 4265l16 24c103 24 203 65 300 121 443-144 886-217 1326-211 429 6 856 88 1276 253-717-156-826-177-1279-184-411-5-826 62-1242 193 69 47 136 103 200 167 199-2 388 25 566 85 268 89 512 249 727 489-404-288-466-330-748-424-115-38-235-63-359-74 226 100 420 232 577 397 195 205 335 461 412 773-221-444-257-510-462-725-164-173-370-307-612-406 350 469 406 1322 406 1325-155-522-134-961-539-1374 0-1-1-1-2-1l1-1c-1 0-1-1-1-1-205-208-437-328-677-353-236-25-481 43-719 208-110 77-201 210-270 374-74 178-121 392-137 611-35 476 101 881 360 1184 269 315 669 520 1148 582 258 33 554 16 896-79 343-96 731-270 1170-553 1816-1173 2191-5175 2259-7328 5-157 37-903 75-1401 1 11 76 2084-256 4251h3s17 101 276 130c195 21 355-25 431-54-23-25-45-48-64-71-305-236 58-1350 112-1490 145-372 390-687 701-875 185-112 686-256 1006-40-22-6-44-11-67-16 64 61 130 137 197 226-58-344-203-667-434-951-224-276-802-721-1030-832 462 199 825 469 1084 789 267 328 424 708 466 1113 20 30 40 60 60 91 371-734 545-1406 532-1996 6-261-160-1137-552-1560zm-1456-1128c66 39 125 92 170 158 71 106 108 239 102 384-5 135-47 282-132 428 65 11 123 32 152 63-153-44-287-36-406 11-121 48-228 135-327 249 38-170 207-276 301-313 48-19 141-26 230-17 82-139 131-295 136-423 6-135-28-258-95-356-40-60-94-109-154-145-95-56-206-84-317-82-375 7-483 247-583 555 0-47 7-109 25-176 72-262 282-420 557-425 119-2 240 28 341 89zm-4423 637c194 19 373 44 518 73 148 30 263 65 326 104 57 34 80 73 64 118-14-149-499-207-916-248-203-20-417-11-633-17-220-7-1034-39-1309 151 69-231 1143-259 1950-181zm3865-85c0 116 94 211 211 211 48 0 93-17 129-44 1 14 2 29 2 44 0 189-153 342-342 342s-342-153-342-342 153-343 342-343c15 0 30 1 44 3-27 36-44 81-44 129zm-6347 2118c636-183 1277-260 1922-247 645 14 1294 119 1945 300-1387-238-1701-225-1946-230-241-6-1236 8-1921 177zm8332-1571c10 9 20 19 29 29-9-10-19-20-29-29zm-5916 4726c643-38 1298 15 1962 143-1401-126-1713-88-1958-74-241 15-1232 108-1900 332 619-234 1252-363 1896-401zm-1096 2187c69-235 1144-321 1951-286 194 8 372 23 517 45 148 21 263 50 327 85 56 31 79 69 63 115-13-149-499-180-916-198-203-9-417 11-633 17-219 5-1034 18-1309 222zm-1207-3403c743-234 1501-362 2273-401 771-38 1556 15 2352 143-1680-126-2054-88-2347-74-289 15-1476 108-2278 332zm155-5030c88 79 52 267-171 317-222 49-469-36-469-36 0 2 51-115 175-229 124-115 377-131 465-52zm2296-575c342 33 682 156 1019 356-725-278-893-274-1024-287-128-12-658-27-1032 123 349-165 694-224 1037-192zm4082 289s-321 111-610 47c-289-65-336-310-222-412s443-81 604 67c162 149 228 301 228 298zm-5128 10838c18 145 9 266-20 367-36 124-102 216-184 280s-179 99-277 111c-89 11-179 3-259-20 96 2 201 13 335-48-79-1-183-15-275-69-54-33-88-74-106-121-28-73-14-159 27-246 39-85 104-172 179-250 137-142 310-257 439-286-176-441-567-508-581-538 1 0 639 156 722 820z"/>
  <path class="fil5" d="m14423 6382c397 419 607 946 621 1559 14 611-169 1307-558 2065 155 254 302 557 411 869 213 606 287 1244 12 1616-11 15-22 29-34 42-66 77-143 135-230 178-303 147-714 98-1111-42-392-139-772-367-1016-577-18-15-35-31-51-46-33 14-94 37-174 54 101 78 1349 1043 1774 1728 208 334 316 547 383 677 66 131 86 170 117 170 54 0 300-93 648-274 241-125 528-292 830-500 643-441 675-451 676-451l-23-2-7-22-439-1396-53-166 112 134c2 2 641 767 731 767 33 0 107-83 188-192 782-1050 1374-3410 1464-4539 58-725 13-1343-73-1839-151-874-420-1363-474-1396-75-45-1060 289-1063 290l-445 150 418-214c3-1 854-435 904-666 32-147-178-893-583-1623-326-590-2131-2334-2744-2027-138 105-1040 1956-1396 2321 1-1 56-101 144-260-51-49-244-223-578-414-392-224-783-307-784-308l-15-3-8-14c-84-155-180-279-285-373 22 181 61 297 61 297s-176-370-466-516c-115-28-235-31-356-13-102 153 397 648 397 648s-908-309-2168 626c-487 361-861 889-1124 1591 191-41 381-50 570-33 342 33 682 156 1019 356-725-278-893-274-1024-287-81-7-323-16-584 16-159 437-276 940-351 1509 284-1 586 13 858 39 194 19 373 44 518 73 148 30 263 65 326 104 57 34 80 73 64 118-14-149-499-207-916-248-203-20-417-11-633-17-49-2-129-5-225-6-67 531-98 1120-95 1766 134-5 268-6 401-4 645 14 1294 119 1945 300-1387-238-1701-225-1946-230-73-2-216-2-399 4 4 385 19 791 48 1217 12 191 25 379 37 565 258-34 517-58 779-71 771-38 1556 15 2352 143-1680-126-2054-88-2347-74-126 7-421 28-780 68 36 549 70 1072 101 1560 233-40 468-66 704-80 643-38 1298 15 1962 143-1401-126-1713-88-1958-74-111 7-380 30-704 75 44 691 83 1309 115 1826 400-69 966-90 1440-69 194 8 372 23 517 45 148 21 263 50 327 85 56 31 79 69 63 115-13-149-499-180-916-198-203-9-417 11-633 17-132 3-479 9-795 58 23 370 42 687 58 941 326-78 653-117 978-113 429 6 856 88 1276 253-717-156-826-177-1279-184-322-4-646 36-971 117l15 244c167 5 328 33 480 84 268 89 512 249 727 489-404-288-466-330-748-424-115-38-235-63-359-74 226 100 420 232 577 397 195 205 335 461 412 773-221-444-257-510-462-725-164-173-370-307-612-406 350 469 406 1322 406 1325-136-458-137-853-408-1221 6 108 10 166 10 166s-614-675-890-386c-80 83-80 186-41 291 195 105 463 321 515 736 18 145 9 266-20 367-36 124-102 216-184 280s-179 99-277 111c-89 11-179 3-259-20 96 2 201 13 335-48-79-1-183-15-275-69-54-33-88-74-106-121-28-73-14-159 27-246 39-85 104-172 179-250 45-47 94-91 145-130-294 73-716 207-1078 432 46 293 166 548 343 755 269 315 669 520 1148 582 258 33 554 16 896-79 343-96 731-270 1170-553 1816-1173 2191-5175 2259-7328 5-157 37-903 75-1401 1 11 76 2084-256 4251h3s17 101 276 130c195 21 355-25 431-54-23-25-45-48-64-71-305-236 58-1350 112-1490 145-372 390-687 701-875 185-112 686-256 1006-40-22-6-44-11-67-16 64 61 130 137 197 226-58-344-203-667-434-951-224-276-802-721-1030-832 462 199 825 469 1084 789 267 328 424 708 466 1113 20 30 40 60 60 91 371-734 545-1406 532-1996 6-261-160-1137-552-1560zm-7002 8725c-105-95-275-266-347-436 124 75 273 203 365 432-6 1-12 3-18 4zm5546-9853c66 39 125 92 170 158 71 106 108 239 102 384-5 135-47 282-132 428 65 11 123 32 152 63-153-44-287-36-406 11-121 48-228 135-327 249 38-170 207-276 301-313 48-19 141-26 230-17 82-139 131-295 136-423 6-135-28-258-95-356-40-60-94-109-154-145-95-56-206-84-317-82-375 7-483 247-583 555 0-47 7-109 25-176 72-262 282-420 557-425 119-2 240 28 341 89zm-558 552c0 116 94 211 211 211 48 0 93-17 129-44 1 14 2 29 2 44 0 189-153 342-342 342s-342-153-342-342 153-343 342-343c15 0 30 1 44 3-27 36-44 81-44 129zm1985 547c10 9 20 19 29 29-9-10-19-20-29-29zm-1686-1806s-321 111-610 47c-289-65-336-310-222-412s443-81 604 67c162 149 228 301 228 298z"/>
  <path class="fil6" d="m14271 14172c83 146 139 255 179 333 66 131 86 170 117 170 54 0 300-93 648-274 241-125 528-292 830-500 643-441 675-451 676-451l-23-2-7-22-439-1396-53-166 112 134c2 2 641 767 731 767 33 0 107-83 188-192 782-1050 1374-3410 1464-4539 58-725 13-1343-73-1839-151-874-420-1363-474-1396-75-45-1060 289-1063 290l-445 150 418-214c3-1 854-435 904-666 32-147-178-893-583-1623-326-590-2131-2334-2744-2027-88 67-488 846-858 1495 401-386 1050-968 1269-911 325 85 2167 2001 2096 2826-70 825-1656 1576-1656 1576l2362-210s142 0 142 2182c0 2183-1061 4163-1061 4163l-1151-848s201 2062 0 2359c-136 201-941 597-1506 831z"/>
  <path class="fil9" d="m12585 6419c-65 5-221 7-350-66-52-30-97-96-131-182 56 112 172 188 305 188 189 0 342-153 342-342 0-15-1-30-2-44-36 27-81 44-129 44-117 0-211-95-211-211 0-48 17-93 44-129-14-2-29-3-44-3-189 0-342 154-342 343 0 18 1 36 4 53-25-98-36-208-27-310v6c100-308 208-548 583-555 111-2 222 26 317 82 60 36 114 85 154 145 67 98 101 221 95 356-5 128-54 284-136 423-89-9-182-2-230 17-68 27-174 89-242 185z"/>
  <path class="fil9" d="m5853 6485c13-45 26-91 40-136-22 11-45 17-69 17-110 0-199-124-199-277 0-28 3-55 8-80 14 47 45 80 80 80 49 0 89-62 89-139 0-52-19-98-46-122 21-11 44-17 68-17 84 0 156 74 185 177 13-36 25-72 38-107-8-74-18-128-85-254-21-38-48-65-79-80-32-16-68-20-104-13-37 8-74 28-107 61-47 47-86 118-105 215-59 288 43 497 60 529 9 3 18 5 25 8 44 16 124 86 157 147 11 1 28-2 44-9z"/>
  <path class="fil10" d="m6542 3315c356-405 778-741 1257-995l-11 4c-70-208-117-411-160-595-60-256-111-473-195-595-87-126-218-145-457 15v488l-62-87-189-262c-176 91-1256 727-2307 3179-1077 2511-617 4505-554 4749 131 1 708 5 765 0h10c54-4 54-3 99-6-149 190-674 671-741 734-1 48 4 235 113 656 99 378 279 966 361 1230 86-522 241-1107 251-1146-158-367-91-814 72-1252 139-374 360-760 564-1074-117-719-136-1404-67-2041 129-1197 568-2227 1251-3002z"/>
  <path class="fil10" d="m6314 12288c-94 68-432 305-760 467-67 34-141 62-218 84 97 142 195 271 294 389 101 120 202 230 304 331 85-112 276-361 379-488 99-123 186-245 222-297-78-161-152-323-221-486z"/>
  <path class="fil11" d="m12409 5674c15 0 30 1 44 3-27 36-44 81-44 129 0 116 94 211 211 211 48 0 93-17 129-44 1 14 2 29 2 44 0 189-153 342-342 342s-342-153-342-342 153-343 342-343z"/>
  <path class="fil11" d="m12827 6234c93-37 357-27 432 53-153-44-287-36-406 11-121 48-228 135-327 249 38-170 207-276 301-313z"/>
  <path class="fil11" d="m12044 5766c0-47 7-109 25-176 72-262 282-420 557-425 119-2 240 28 341 89 66 39 125 92 170 158 71 106 108 239 102 384-5 136-47 283-133 429l-49-6c81-140 131-296 136-425 6-135-28-258-95-356-40-60-94-109-154-145-95-56-206-84-317-82-375 7-483 247-583 555z"/>
  <path class="fil11" d="m12708 4547s-321 111-610 47c-289-65-336-310-222-412s443-81 604 67c162 149 228 301 228 298z"/>
  <path class="fil11" d="m5690 5114s247 85 469 36c223-50 259-238 171-317s-341-63-465 52c-124 114-175 231-175 229z"/>
  <path class="fil11" d="m5652 6347c55 20 170 128 172 193-51-80-114-129-186-154-73-26-155-29-243-17 83-61 200-43 257-22z"/>
  <path class="fil11" d="m5589 6366c0-1-135-235-68-565 22-107 66-186 119-239 39-39 84-63 129-73 47-9 93-4 134 16 40 20 74 53 99 100 105 197 62 404 61 405-28-168-2-197-101-383-21-38-48-65-79-80-32-16-68-20-104-13-37 8-74 28-107 61-47 47-86 118-105 215-64 314 62 533 62 534l-40 22z"/>
  <path class="fil11" d="m5824 5811c110 0 199 125 199 278s-89 277-199 277-199-124-199-277c0-28 3-55 8-80 14 47 45 80 80 80 49 0 89-62 89-139 0-52-19-98-46-122 21-11 44-17 68-17z"/>
  <path class="fil11" d="m7255 14069c-881-1407-1466-2847-1652-4329-186-1484 26-3010 740-4589-72 295-272 861-324 1019-396 1217-494 2402-347 3561 183 1459 756 2877 1618 4265 8 12 38 61 46 73h-81z"/>
  <path class="fil11" d="m5361 8373c-120-725-139-1415-70-2056 129-1197 568-2227 1251-3002 683-777 1609-1298 2712-1480 483-79 1e3 -93 1546-34-371 10-997 40-1176 56-122 12-241 27-359 47-1086 178-1999 692-2671 1456-673 765-1107 1782-1234 2964-69 636-49 1319 69 2038l-68 11z"/>
  <path class="fil11" d="m10102 1786c665-563 1482-621 1948 198 77 18 433 109 789 312 400 229 605 438 606 438l-49 49c-1-1-199-202-592-427-392-224-783-307-784-308l-15-3-8-14c-434-800-1179-761-1808-228l-87-17z"/>
  <path class="fil11" d="m6133 11827c-3-1-878-390-1291-936-300-397-243-935-48-1459 192-519 543-1061 788-1401l31 76c-242 338-565 838-754 1349-188 504-245 1019 38 1393 402 532 1262 914 1264 915l-28 63z"/>
  <path class="fil11" d="m4789 10700c-1 4-382 1433-293 1827 7 29 16 55 28 80 53 106 157 169 284 197 132 29 288 21 438-13 98-22 193-56 278-98 380-188 773-478 774-479l41 56c-1 1-399 295-785 485-89 44-189 80-293 103-159 36-326 45-467 13-147-32-269-106-332-234-14-29-25-60-33-94-94-412 292-1857 293-1861l67 18z"/>
  <path class="fil11" d="m5914 13637c-113-111-226-231-337-365-112-133-222-280-332-444l58-38c108 161 217 306 327 438s221 250 333 359l-49 50z"/>
  <path class="fil11" d="m4448 11987c-1-2-273-867-404-1370-133-508-116-691-116-691l1-14 10-9c2-1 488-517 671-685 84-6 76-4 128-8-149 190-674 671-741 734-1 48 4 235 113 656 131 499 403 1364 404 1367l-66 20zm187-2702l-1-12c-2 4-5 8-8 12-105 5-787 0-789 0h-26l-7-25c-2-7-608-2120 550-4820 1159-2701 2364-3225 2368-3227l25-12 17 23 143 199v-310l15-11c290-200 454-172 568-7 91 132 144 355 205 618 43 184 91 387 158 589l-65 22c-70-208-117-411-160-595-60-256-111-473-195-595-87-126-218-145-457 15v488l-62-87-189-262c-176 91-1256 727-2307 3179-1077 2511-617 4505-554 4749 131 1 708 5 765 0 29-3 27 19 5 57l1 12h-9 9z"/>
  <path class="fil11" d="m7853 14422c-205-208-437-328-677-353-236-25-481 43-719 208-110 77-201 210-270 374-74 178-121 392-137 611-35 476 101 881 360 1184 269 315 669 520 1148 582 258 33 554 16 896-79 343-96 731-270 1170-553 1816-1173 2191-5175 2259-7328 5-157 37-903 75-1401 1 21 258 7140-2297 8787-445 287-839 464-1189 561-351 98-656 115-922 81-497-63-913-277-1192-605-271-317-413-739-377-1234 16-226 65-448 142-633 73-175 173-318 295-403 251-176 513-247 765-221 256 26 503 153 719 374 427 434 492 1422 492 1425-155-523-134-963-541-1377z"/>
  <path class="fil11" d="m6858 14565c1 0 639 156 722 820 18 145 9 266-20 367-36 124-102 216-184 280s-179 99-277 111c-89 11-179 3-259-20 132 2 278 22 493-146 71-55 129-135 160-244 27-92 35-204 18-340-88-705-636-793-653-828z"/>
  <path class="fil11" d="m7307 16064c-1 0-226 49-407-58-54-33-88-74-106-121-28-73-14-159 27-246 39-85 104-172 179-250 149-155 343-279 473-292l5 46c-120 12-302 130-444 278-73 75-134 157-171 237-36 77-49 151-26 211 14 37 42 70 87 97 165 98 373 53 374 53l9 45z"/>
  <path class="fil11" d="m7360 15997c-1 0-161 28-240-157-48-115 31-309 133-447 33-44 68-83 102-111 34-30 68-48 98-52 27-4 51 5 68 29l-15 10c-13-17-30-24-51-21-26 3-56 21-88 48-33 27-67 65-99 108-99 134-177 321-131 429 73 172 219 145 219 145l4 19z"/>
  <path class="fil11" d="m7445 15904s-91 19-140-78c-4-8-7-16-10-26-15-53-15-137 3-216 19-79 57-153 118-184 8-4 16-7 24-10 164-48 90 147 90 147l-18-6c0-1 62-160-66-123-8 2-15 5-22 8-55 28-90 98-108 172-18 76-18 157-3 207 2 8 5 16 8 22 43 85 120 69 120 69l4 18z"/>
  <path class="fil11" d="m7875 14358c312 106 573 262 775 474 195 205 335 461 412 773-221-444-257-510-462-725-194-204-445-354-747-456l22-66z"/>
  <path class="fil11" d="m7842 14359c215-6 420 21 611 85 268 89 512 249 727 489-404-288-466-330-748-424-166-55-342-82-527-81l-63-69z"/>
  <path class="fil11" d="m7589 14147c449-148 897-223 1343-217 430 6 856 88 1276 253-717-156-826-177-1279-184-428-5-859 67-1293 209l-47-61z"/>
  <path class="fil11" d="m7382 13266c69-235 1144-321 1951-286 194 8 372 23 517 45 148 21 263 50 327 85 56 31 79 69 63 115-13-149-499-180-916-198-203-9-417 11-633 17-219 5-1034 18-1309 222z"/>
  <path class="fil11" d="m6582 11480c619-234 1252-363 1896-401 643-38 1298 15 1962 143-1401-126-1713-88-1958-74-241 15-1232 108-1900 332z"/>
  <path class="fil11" d="m6175 9863c743-234 1501-362 2273-401 771-38 1556 15 2352 143-1680-126-2054-88-2347-74-289 15-1476 108-2278 332z"/>
  <path class="fil11" d="m6062 7924c636-183 1277-260 1922-247 645 14 1294 119 1945 300-1387-238-1701-225-1946-230-241-6-1236 8-1921 177z"/>
  <path class="fil11" d="m6594 6072c69-231 1143-259 1950-181 194 19 373 44 518 73 148 30 263 65 326 104 57 34 80 73 64 118-14-149-499-207-916-248-203-20-417-11-633-17-220-7-1034-39-1309 151z"/>
  <path class="fil11" d="m7589 4450c349-165 694-224 1037-192 342 33 682 156 1019 356-725-278-893-274-1024-287-128-12-658-27-1032 123z"/>
  <path class="fil11" d="m11705 11918s17 101 276 130c275 30 480-75 481-75l31 61c-1 1-224 115-519 82-310-34-337-184-337-184l68-14z"/>
  <path class="fil11" d="m12833 7945c462 199 825 469 1084 789 270 332 427 716 468 1126l-69 7c-39-397-192-768-453-1090-224-276-802-721-1030-832z"/>
  <path class="fil11" d="m12327 11769c38 78 121 172 236 271 239 205 610 428 994 563 381 135 773 184 1058 45 78-38 149-91 208-160 11-12 21-25 30-38 260-350 185-966-21-1552-208-590-549-1149-820-1383-16-13-31-26-47-37l70-17c17 12 5-13 22 2 279 240 629 811 840 1412 213 606 287 1244 12 1616-11 15-22 29-34 42-66 77-143 135-230 178-303 147-714 98-1111-42-392-139-772-367-1016-577-122-105-211-207-253-292l62-31z"/>
  <path class="fil11" d="m12460 10433c145-372 390-687 701-875 185-112 686-256 1006-40-348-89-702-62-971 99-297 180-532 483-671 841-334 859-170 1453-175 1466-308-232 55-1350 110-1491z"/>
  <path class="fil11" d="m12286 12095c4 3 1338 1019 1781 1733 208 334 316 547 383 677 66 131 86 170 117 170 54 0 300-93 648-274 241-125 528-292 830-500 643-441 675-451 676-451l-23-2-7-22-439-1396-53-166 112 134c2 2 641 767 731 767 33 0 107-83 188-192 782-1050 1374-3410 1464-4539 58-725 13-1343-73-1839-151-874-420-1363-474-1396-75-45-1060 289-1063 290l-445 150 418-214c3-1 854-435 904-666 32-147-178-893-583-1623-326-590-2131-2334-2744-2027-138 105-1040 1956-1396 2321 4-6 1289-2345 1365-2383 664-332 2494 1438 2836 2055 412 744 624 1515 590 1672-35 159-370 385-630 540 306-95 719-213 784-174 60 36 352 547 506 1443 87 501 133 1125 74 1856-91 1140-687 3514-1477 4575-93 126-186 221-244 221-91 0-479-437-673-662l388 1233-13 4c-13 49-127 183-660 549-305 209-595 378-837 504-358 186-618 281-680 281-73 0-97-48-179-207-66-129-173-339-380-672-436-703-1824-1758-1828-1761l106-9z"/>
  <path class="fil11" d="m5891 13616c1-1 287-379 422-545 131-162 240-323 241-323l57 39c-1 0-111 163-245 328-131 162-419 542-420 543l-55-42z"/>
  <path class="fil11" d="m5714 13366c-3 6-813 2001-307 2921 235 426 723 734 1309 927 678 222 1483 291 2179 214 1272-142 1406-651 1454-835l2-6c47-180 23-903 23-905l66-39c0 2 27 772-23 961l-1 6c-52 196-194 739-1514 887-704 78-1521 8-2207-218-602-197-1105-515-1348-959-523-949 300-2973 303-2979l64 25z"/>
  <path class="fil11" d="m5991 16938s0-105 45-257c45-153 191-384 192-385l58 37c0 1-141 224-184 367-42 143-42 238-42 238h-69z"/>
  <path class="fil11" d="m7556 17439s39-118 0-247c-36-121-43-120-43-120l76-16c0 1-15-43 33 116 46 150 0 288 0 288l-66-21z"/>
  <path class="fil11" d="m8881 17445s14-114-42-250c-57-136-166-257-167-257l46-26s122 105 185 257 46 285 46 285l-68-9z"/>
  <path class="fil11" d="m5506 16569s-63-125 197-443c273-334 417-150 417-149v98s-145-173-364 95c-232 284-187 369-187 370l-63 29z"/>
  <path class="fil11" d="m11478 14065c1 4 127 1159-27 1932-5 22-8 42-12 61-58 357-3 727 200 1034 205 308 560 553 1103 662 34 7 67 13 99 18 662 108 1554 107 2331-33 643-116 1205-327 1487-650 351-402 494-916 483-1443-5-244-253-1226-492-1735 335 493 549 1121 561 1734 11 542-137 1074-500 1490-293 336-870 554-1527 672-784 142-1685 142-2354 33-36-6-70-12-101-18-564-113-933-370-1147-692-214-323-272-710-211-1083 4-23 8-44 12-64 70-353 75-1739 95-1918z"/>
  <path class="fil11" d="m12858 17809c0-1 23-433 222-896 90-212 205-360 321-454 146-119 296-153 403-121 94 28 203 156 301 328 103 179 195 407 249 618 101 403 127 581 128 581l-69 10s-26-174-127-575c-51-204-142-426-241-600-90-157-185-273-261-296-87-26-212 5-340 109-107 88-215 227-301 427-193 451-216 872-216 873l-69-4z"/>
  <path class="fil11" d="m15793 17634c0-2-168-472-490-859-145-174-284-279-409-334-144-64-268-59-359-13-172 86-330 462-330 463l-64-27c1-1 168-401 363-498 108-54 253-61 418 11 133 59 281 171 434 354 330 397 502 878 502 879l-65 24z"/>
  <path class="fil11" d="m11815 17370c0-1 174-302 514-755 77-103 150-174 219-220 90-61 172-81 244-78 73 4 135 33 184 70 40 30 72 65 94 98 91 133 153 257 153 257l-62 31s-60-120-148-249c-18-27-45-57-78-82-40-30-89-53-147-56s-126 15-201 66c-63 42-131 108-203 205-336 448-509 746-509 747l-60-34z"/>
  <path class="fil11" d="m10656 15260c1 0 50-82 353-76 296 6 490 88 491 89l-27 64c0-1-183-78-465-84-275-5-359 77-359 77l7-70z"/>
  <path class="fil11" d="m17009 14811c1-1 361-100 1054-923 150-178 520-625 906-1226-1 1-149 435-853 1271-707 838-1087 944-1088 944l-19-66z"/>
  <path class="fil11" d="m16893 16826c213 31 656 20 1062-64 289-59 557-155 707-297 278-264 318-628 362-1014 12-115 26-232 45-350 52-310 138-492 433-1115 201-425 501-1058 955-2082 635-1430 1034-3663 575-5819-344-1614-1169-3184-2736-4343-104-68-211-135-318-200-2252-1356-4613-1630-6517-1400-1901 229-3344 958-3769 1609-6 9-13 20-20 32l-37-50c6-10-9-8-1-20 434-665 1897-1408 3818-1640 1918-231 4294 44 6561 1410 107 64 214 131 322 202l2 1c1583 1170 2415 2756 2762 4385 463 2171 61 4420-579 5861-453 1023-753 1657-955 2083-292 616-377 797-428 1098-19 115-32 231-45 346-44 399-86 775-382 1056-160 152-441 253-741 315-414 85-867 97-1086 65l10-69z"/>
  <path class="fil11" d="m17795 16823c1-1 39-290-26-577-29-129-73-221-123-283-58-71-124-102-184-102-112-1-294 152-295 152l-26-30c1-1 195-164 322-163 70 1 148 36 214 118 54 66 101 163 131 299 67 295 28 590 28 591l-41-5z"/>
  <path class="fil11" d="m14394 6353c416 423 636 961 650 1588 14 613-170 1312-563 2074l-61-32c387-751 568-1439 555-2041 6-267-168-1179-581-1589z"/>
  <path class="fil12" d="m7214 14004c-237-384-453-770-644-1159-44 62-119 165-204 270-131 162-419 542-420 543l-30-23-2 2c-4-5-9-10-14-15l-9-6s0-1 1-1c-66-65-131-133-196-205-114 298-751 2036-289 2877 31 56 66 109 105 161 21-71 72-176 191-322 163-200 281-214 349-193-63-205-89-432-71-676 16-226 65-448 142-633 73-175 173-318 295-403 251-176 513-247 765-221 10 1 21 2 31 4z"/>
  <path class="fil12" d="m9661 16454c-336 217-644 371-925 475 37 36 119 125 167 240 44 106 49 203 48 252 1220-150 1351-647 1398-828l2-6c37-142 30-621 25-818-210 279-447 512-715 685z"/>
  <ellipse class="fil5" cx="7981" cy="13566" rx="349" ry="446"/>
  <ellipse class="fil5" cx="7853" cy="12153" rx="349" ry="879"/>
  <ellipse class="fil5" transform="matrix(.99676 -.13684 .080118 1.6895 7700.8 10369)" rx="349" ry="448"/>
  <ellipse class="fil5" transform="matrix(.99676 -.15862 .080118 1.9585 7631.7 8642.9)" rx="349" ry="448"/>
  <ellipse class="fil5" transform="matrix(.99676 -.15862 .080118 1.9585 7650.3 6788.2)" rx="349" ry="448"/>
  <ellipse class="fil5" transform="matrix(1.0794 -.13561 -.33922 1.6744 7867.4 5100.2)" rx="349" ry="448"/>
  <path class="fil13" d="m14012 9515zm-816 102c-297 180-532 483-671 841-236 606-224 1080-198 1311v1c38 77 121 171 236 270 239 205 610 428 994 563 381 135 773 184 1058 45 78-38 149-91 208-160 11-12 21-25 30-38 260-350 185-966-21-1552-208-590-549-1149-820-1383-15-13-30-25-44-35-281-36-554 6-772 137z"/>
  <path class="fil14" d="m14720 12537s-758-393-1378-1263c-575-806-219-1615 172-1779-114 24-221 64-318 122-297 180-532 483-671 841-236 606-224 1080-198 1311v1c38 77 121 171 236 270 239 205 610 428 994 563 381 135 773 184 1058 45 40-19 78-43 114-71-6-13-9-27-9-40z"/>
  <path class="fil13" d="m6127 11824c-74-33-891-412-1285-933-27-36-52-74-73-112-79 306-350 1409-273 1748 7 29 16 55 28 80 53 106 157 169 284 197 132 29 288 21 438-13 98-22 193-56 278-98 341-168 693-420 762-470-56-132-109-265-159-399z"/>
  <path class="fil14" d="m6127 11824c-49-22-427-197-791-465v121s-16 507-387 863c-206 197-348 243-434 244 3 7 6 13 9 20 53 106 157 169 284 197 132 29 288 21 438-13 98-22 193-56 278-98 341-168 693-420 762-470-56-132-109-265-159-399z"/>
  <path class="fil14" d="m6094 16052c-52-36-174-82-338 118-164 201-190 303-191 345 117 137 262 259 430 366 5-46 16-116 41-200 40-135 158-330 186-375-50-80-93-165-128-254z"/>
  <path class="fil13" d="m6264 16370c-42 69-130 222-162 330s-40 188-41 221c195 117 417 214 655 293 268 88 556 152 848 192 9-44 19-126-8-214-16-53-26-83-33-99-485-68-891-280-1165-602-33-39-65-79-94-121z"/>
  <path class="fil14" d="m8472 17015c-328 92-617 113-871 87 5 17 12 40 21 70 30 98 21 190 11 243 422 53 853 57 1249 14 2-36 1-129-43-234-47-112-129-213-157-246-72 25-142 47-210 66z"/>
  <path class="fil14" d="m12384 16657c-274 365-439 630-491 717 206 173 485 307 849 380 34 7 67 13 99 18 7 1 13 2 20 3 10-111 53-476 219-862 23-55 48-106 75-152-18-34-71-132-142-237-18-27-45-57-78-82-40-30-89-53-147-56s-126 15-201 66c-63 42-131 108-203 205z"/>
  <path class="fil13" d="m13143 16940c-164 383-205 745-214 846 435 62 957 80 1477 46-14-74-47-245-120-532-51-204-142-426-241-600-90-157-185-273-261-296-87-26-212 5-340 109-107 88-215 227-301 427z"/>
  <path class="fil14" d="m14211 16876c58 132 109 273 143 408 74 296 108 471 121 543 236-18 471-47 697-88 213-38 417-87 605-147-48-123-209-498-474-817-145-174-284-279-409-334-144-64-268-59-359-13-152 76-293 378-324 448z"/>
  <path class="fil15" d="m17196 15991c-33 296-119 582-268 840 194 22 533 14 871-40 8-83 22-315-30-545-29-129-73-221-123-283-58-71-124-102-184-102-85-1-211 87-266 130z"/>
  <path class="fil0" d="m2231 16838s342-34 492-104c110-50-222-16-407 5 110-62 243-158 171-165-34-3-86 20-138 49 115-108 255-261 266-374 20-192-462 482-462 482s81-258 31-281c-50-24-92 273-92 273s4-447-185-497c-147-39 10 296 86 446-83-52-230-92-214-56 9 20 55 51 104 79-56-13-104-17-99 12 9 54 146 94 197 107-85-4-278-10-240 12 16 10 48 17 82 21l-139 22 916 12-369-43z"/>
  <path class="fil16" d="m3503 17051c-5-1-11-3-16-5-5-1-11-3-15-5-2-4 3-16 4-20 1-8 3-14 5-22 3-15 6-29 8-44 3-17 14-36-25-49l-136-48c-33-14-54-25-71-58-13-25 7-39 28-48 4-2 5-2 9-3 40-14 74-12 115 11 43 25 58 45 85 80 5 6 9 14 13 18l16-90c4-20 6-12-9-40-4-6-7-12-11-18l-36-55c-11-21-20-31-31-56l-11-28c-8-23-11-28-5-54 4-16 14-26 32-24 9 1 14 3 24 7 39 16 67 45 79 80 1 4 1 5 3 9 4 11 8 40 9 52 1 23 0 41-3 64-1 5-1 8-2 12l-1 11c9-14 49-50 65-58 6-4 11-7 17-11 6-3 12-5 18-8 34-12 67-14 101-1 19 8 47 22 43 45-4 29-45 54-72 61l-160 44c-24 12-23 34-27 56l-7 44 1-1 53-29c14-7 26-10 38-15 3-1 5-1 9-2 4 0 6-1 10-2l42-4c11 0 32 4 43 9 29 10 74 46 70 71-1 12-13 21-23 27-32 20-83 17-122 14-14-1-29-1-43-3-15-1-28-3-43-4-23-1-47-7-54 22-5 22-14 50-17 68z"/>
  <path class="fil16" d="m11101 18128c4 0 11-3 16-5 5-1 10-2 15-5 2-4-3-16-4-20-2-7-3-14-5-22-3-15-7-29-9-43-3-18-14-36 26-50l135-48c33-14 55-25 72-58 13-25-8-39-28-48-4-1-6-2-10-3-39-14-74-12-115 12-43 24-57 44-85 79-4 6-8 14-13 18l-16-90c-3-19-5-12 10-40 3-5 7-12 11-18l35-55c12-21 21-31 32-56l11-28c7-23 11-28 5-53-4-17-14-27-32-25-9 1-14 3-24 7-39 16-67 45-79 80-1 4-1 5-3 9-5 11-9 40-9 52-2 23 0 42 3 65 0 4 1 7 1 11l2 12c-9-15-50-50-65-59-7-4-11-7-18-10-6-4-11-6-17-8-34-13-67-15-101-1-19 7-47 21-44 44 4 29 46 54 73 61l160 44c24 12 23 34 26 57l8 43s-1-1-1 0l-54-30c-13-7-25-10-37-14-4-2-6-2-9-3-5 0-6-1-11-2l-41-4c-11 1-32 5-44 9-28 10-74 46-70 72 2 11 14 20 23 26 32 21 84 17 123 14 13 0 29-1 43-2 14-2 27-4 42-5 24-1 48-6 54 23 5 21 15 49 18 67z"/>
  <path class="fil16" d="m20208 17570c-4 0-11-3-16-5-5-1-10-2-15-4-1-4 3-17 4-21 2-7 3-14 5-21 3-16 7-30 9-44 3-18 14-36-26-50l-135-48c-33-14-55-25-72-58-13-25 8-39 28-48 4-1 6-2 10-3 39-14 74-12 115 12 43 24 57 44 85 80 4 5 8 13 13 17l16-90c3-19 5-12-10-40-3-5-7-12-11-18l-35-55c-12-20-21-31-32-56l-11-28c-7-23-11-28-5-53 4-17 14-27 32-25 9 1 14 3 24 7 39 16 67 45 79 80 1 4 1 5 3 9 5 11 9 40 9 52 2 23 0 42-3 65 0 4-1 7-1 11l-2 12c9-15 50-50 65-59 7-4 11-7 18-10 6-4 11-6 18-8 33-13 66-15 100-1 19 7 47 21 44 44-4 29-46 54-73 61l-159 44c-25 13-24 34-27 57l-8 43h1l54-30c13-7 25-9 37-14 4-2 6-2 9-2 5-1 6-2 11-3l41-4c11 1 32 5 44 9 28 10 74 46 70 72-2 12-14 20-23 26-32 21-84 17-123 15-13-1-29-2-43-3-14-2-27-4-42-5-24-1-48-6-54 23-5 21-15 49-18 67z"/>
</svg>
