<?xml version="1.0" encoding="iso-8859-1"?>
<!-- Generator: Adobe Illustrator 22.1.0, SVG Export Plug-In . SVG Version: 6.00 Build 0)  -->
<svg version="1.1" id="Layer_1" xmlns="http://www.w3.org/2000/svg" xmlns:xlink="http://www.w3.org/1999/xlink" x="0px" y="0px"
	 width="850.394px" height="850.394px" viewBox="0 0 850.394 850.394" enable-background="new 0 0 850.394 850.394"
	 xml:space="preserve">
<g>
	<path fill="#643232" d="M682.326,169.729c-16.43-41.056-26.026-86.102-28.562-133.995c-12.67,6.916-38.838,10.795-39.186,10.835
		c-15.246,1.692-29.18-2.65-44.265-3.237c-15.177-0.591-30.142,2.174-44.704,6.25c-20.287,5.678-39.872,14.131-57.563,25.611
		c-30.853,20.021-56.366,50.079-65.158,86.378c-0.49,2.023-2.287,3.447-4.367,3.447c-2.087-0.002-3.881-1.433-4.37-3.479
		c-9.435-39.401-37.362-72.006-71.437-92.817c-19.007-11.608-40.019-19.805-61.707-24.766c-10.459-2.393-21.95-5.046-32.727-4.937
		c-13.604,0.138-26.326,6.538-39.96,6.633c-5.346,0.037-44.708-4.04-44.349-11.49c-2.128,44.167-12.442,89.145-30.676,133.755
		c-10.655,26.033-16.057,53.357-16.057,81.213c0,25.761,4.713,51.397,13.841,75.485c3.915,10.333,8.618,25.865,16.356,33.974
		c6.743,7.065,19.148,11.866,26.617,17.629c49.522,38.215,75.45,95.007,92.302,153.693c18.183,63.321,24.771,129.342,24.93,195.057
		c-0.001-0.253-61.88-14.413-67.596-16.211c-0.535-0.168,39.921,33.54,62.922,46.134c31.401,17.223,64.381,28.21,98.024,32.656
		c21.718,2.932,43.96,3.063,65.071,0.559c25.674-3.011,50.959-9.793,75.465-20.218c8.169-3.475,16.251-7.355,24.232-11.635
		c25.019-13.412,48.358-30.317,69.555-50.366c-6.653,2.259-75.77,21.226-76.212,19.04c-0.249-1.231-0.191-2.795-0.187-4.218
		c0.038-14.362,0.374-28.723,1.061-43.069c5.27-110.105,29.954-240.105,126.065-308.064c9.698-6.857,17.64-9.702,23.21-20.381
		c5.409-10.373,10.039-21.156,13.763-32.247c7.329-21.832,11.066-44.792,11.066-67.821
		C697.721,221.999,692.54,195.284,682.326,169.729z M430.941,693.952c-4.02,5.012-9.061,9.351-14.921,12.445
		c-5.837,3.118-12.593,4.763-19.306,4.651c-6.642-0.097-13.264-1.745-19.142-4.743c-5.886-2.986-11.034-7.247-15.086-12.276
		c-7.285-9.015-11.067-20.426-10.856-31.469c0.011-0.587,0.858-0.666,0.989-0.093c2.429,10.574,7.339,20.167,14.531,27.423
		c7.931,8.141,18.661,13.115,29.679,13.203c5.422,0.103,10.837-1.083,15.83-3.455c5.008-2.34,9.587-5.757,13.593-9.83
		c7.187-7.338,12.463-16.729,15.496-27.152c0.164-0.564,1.005-0.437,0.983,0.15C442.324,673.849,438.126,684.963,430.941,693.952z
		 M475.204,613.242c-5.93,6.736-13.724,11.942-22.414,14.187c-12.661,3.272-26.683-0.099-36.983-8.155
		c-10.102-7.901-16.61-20.009-18.425-32.707c-0.023-0.158-0.228-0.167-0.263-0.011c-3.836,17.156-14.947,33.526-31.491,39.397
		c-14.092,5.001-30.643,1.477-42.07-8.167c-0.125-0.106-0.25-0.212-0.374-0.319c-4.955-4.277-8.923-9.64-11.74-15.539
		c-2.828-5.923-4.513-12.391-4.945-18.94c-0.037-0.563-0.574-4.089,0.583-3.674c0.513,0.184,0.569,1.482,0.69,1.957
		c0.209,0.819,0.435,1.634,0.676,2.444c0.965,3.24,2.185,6.405,3.667,9.444c2.948,6.045,6.952,11.6,11.973,16.093
		c9.033,8.083,21.563,12.531,33.537,10.642c10.293-1.623,19.551-7.744,26.222-15.748c6.542-7.849,10.762-17.411,13.529-27.253
		c0.041-0.147,0.24-0.137,0.266,0.013c2.151,11.992,7.553,23.588,16.407,31.947c9.001,8.498,21.75,13.32,33.99,11.477
		c10.088-1.519,19.207-7.38,25.908-15.073c6.701-7.692,11.15-17.122,14.269-26.836c0.001,0.125,0.001,0.251,0.001,0.376
		C488.207,591.341,483.493,603.828,475.204,613.242z M522.144,527.169c-4.027,5.014-9.057,9.343-14.914,12.447
		c-5.842,3.12-12.606,4.759-19.307,4.648c-6.653-0.095-13.275-1.751-19.148-4.743c-5.889-2.992-11.03-7.242-15.089-12.272
		c-5.915-7.324-9.511-16.222-10.542-25.228c-0.03-0.265-0.401-0.272-0.441-0.008c-1.363,9.182-5.27,18.15-11.269,25.649
		c-4.011,5.014-9.057,9.359-14.914,12.447c-5.841,3.12-12.59,4.759-19.307,4.648c-6.637-0.095-13.259-1.735-19.148-4.743
		c-5.889-2.977-11.03-7.242-15.073-12.272c-6.149-7.602-9.789-16.899-10.662-26.243c-0.021-0.223-0.32-0.232-0.352-0.01
		c-1.356,9.213-5.268,18.227-11.283,25.746c-4.011,5.014-9.057,9.343-14.914,12.447c-5.841,3.12-12.59,4.759-19.307,4.648
		c-6.637-0.096-13.259-1.751-19.148-4.743c-5.889-2.992-11.031-7.242-15.089-12.272c-7.908-9.796-11.678-22.405-10.711-34.303
		c0.013-0.16,0.246-0.167,0.275-0.009c2.181,11.655,7.302,22.282,15.115,30.173c7.927,8.134,18.655,13.116,29.669,13.195
		c5.428,0.111,10.839-1.082,15.837-3.454c4.998-2.34,9.582-5.762,13.593-9.821c1.892-1.915,3.63-3.99,5.228-6.153
		c2.42-3.276,5.649-9.058,7.307-12.779c1.601-3.592,3.007-7.287,3.797-11.144c0.021-0.1,0.142-0.093,0.148,0.009
		c0.169,2.57,1.088,5.19,1.831,7.622c2.62,8.582,7.053,16.513,13.329,22.952c7.927,8.134,18.655,13.116,29.669,13.195
		c5.428,0.111,10.839-1.082,15.837-3.454c4.998-2.34,9.582-5.746,13.593-9.821c4.187-4.253,7.662-9.207,10.411-14.496
		c1.454-2.797,2.707-5.698,3.762-8.669c0.857-2.414,1.515-4.707,2.16-7.157c0.032-0.123,0.204-0.127,0.237-0.004
		c2.931,11.055,6.862,21.553,15.026,29.913c7.943,8.134,18.671,13.116,29.685,13.195c5.428,0.111,10.839-1.082,15.837-3.454
		c4.998-2.34,9.582-5.762,13.593-9.821c7.833-8.003,13.389-18.45,16.255-30.006c0.033-0.132,0.23-0.114,0.233,0.022
		C534.261,505.047,529.979,517.375,522.144,527.169z"/>
	<path fill="#B29691" d="M397.572,148.106C377.845,90.142,321.355,46.874,250.243,34.591c-1.125-0.194-1.241-1.746-0.147-2.07
		c8.034-2.377,18.713-8.136,23.884-9.692c13.113-3.945,26.421-7.243,39.855-9.896c26.875-5.306,54.257-8.025,81.649-8.172
		c53.08-0.284,110.548,7.977,159.547,29.44c0.981,0.43,0.781,1.872-0.278,2.037C489.5,46.396,422.304,82.693,399.539,148.107
		C399.204,149.069,397.9,149.071,397.572,148.106z M72.31,480.997c5.06-27.309,15.374-53.184,30.652-76.899
		c7.346-11.399,13.273-23.748,20.349-35.247c1.139-1.852,3.662-2.247,5.38-0.915c19.417,15.053,38.852,26.846,55.097,46.34
		c16.082,19.298,28.807,41.217,38.93,64.159c20.74,47,31.042,98.2,36.544,149.063c1.512,13.975,2.636,27.991,3.446,42.024
		c0.192,3.327,0.43,30.983,0.985,42.217c0.118,2.38-2.035,4.228-4.372,3.76c-1.907-0.382-3.796-0.768-5.667-1.16
		c-24.136-5.051-45.243-10.926-64.177-17.847l-0.178-0.065C87.506,659.379,51.419,592.935,72.31,480.997z M611.594,693.768
		c-22.345,8.719-47.771,15.879-77.498,21.81c-2.283,0.456-4.44-1.298-4.415-3.626c1.165-110.752,17.908-245.059,106.007-322.306
		c9.034-7.921,19.363-17.113,30.384-22.458c1.602-0.777,3.572-0.221,4.557,1.262c6.139,9.239,10.612,19.889,16.462,29.421
		c16.037,26.126,28.805,52.782,34.463,83.13C741.978,590.577,708.066,656.196,611.594,693.768z"/>
	<path fill="#D6D5C8" d="M349.191,215.857c0,50.721-41.118,91.839-91.839,91.839s-91.839-41.118-91.839-91.839
		s41.118-91.839,91.839-91.839S349.191,165.136,349.191,215.857z M541.699,124.018c-50.721,0-91.839,41.118-91.839,91.839
		s41.118,91.839,91.839,91.839s91.839-41.118,91.839-91.839S592.42,124.018,541.699,124.018z"/>
	<path fill="#000101" d="M308.57,215.857c0,28.293-22.924,51.218-51.218,51.218s-51.218-22.924-51.218-51.218
		c0-5.828,0.989-11.444,2.79-16.637c5.016,5.864,12.575,9.573,21.052,9.573c15.118,0,27.375-11.868,27.375-26.492
		c0-6.57-2.508-12.61-6.605-17.237c2.155-0.283,4.38-0.424,6.605-0.424C285.645,164.639,308.57,187.564,308.57,215.857z
		 M541.699,164.639c-2.225,0-4.451,0.141-6.605,0.424c4.097,4.627,6.605,10.667,6.605,17.237c0,14.624-12.257,26.492-27.375,26.492
		c-8.478,0-16.036-3.709-21.052-9.573c-1.801,5.193-2.79,10.809-2.79,16.637c0,28.293,22.924,51.218,51.218,51.218
		s51.218-22.924,51.218-51.218S569.992,164.639,541.699,164.639z"/>
	<path fill="#F59639" d="M402.179,443.668c0,0-114.904-217.449,0-215.468C504.615,229.966,402.179,443.668,402.179,443.668z"/>
	<path fill="#F59639" d="M365.05,793.695c-1.907,17.308-10.385,36.665-21.052,48.71c-0.989,1.13-2.791,1.307-3.991,0.353
		c-10.35-8.265-17.767-19.745-22.006-32.355c-0.318-0.989-1.695-0.989-2.049,0c-4.486,12.893-12.116,24.231-20.487,35.075
		c-1.448,1.872-4.345,1.413-5.157-0.813c-4.663-13.034-8.018-26.139-8.689-39.95c-0.035-1.06-1.378-1.413-2.013-0.53
		c-8.336,12.398-21.229,20.169-36.029,22.606c-1.66,0.283-3.214-0.954-3.391-2.614c-3.356-32.673,8.901-50.688,25.609-63.545
		C296.313,777.376,329.763,789.033,365.05,793.695z M531.95,762.011c-31.084,16.672-65.1,28.046-100.952,32.25
		c2.013,17.167,10.385,36.241,20.947,48.145c1.024,1.13,2.79,1.307,3.991,0.353c10.385-8.265,17.767-19.745,22.006-32.355
		c0.353-0.989,1.731-0.989,2.084,0c4.486,12.893,12.116,24.231,20.488,35.075c1.448,1.872,4.345,1.413,5.122-0.813
		c4.698-13.034,8.054-26.139,8.725-39.95c0.035-1.06,1.378-1.413,1.978-0.53c8.336,12.398,21.229,20.169,36.064,22.606
		c1.66,0.283,3.214-0.954,3.391-2.614C559.007,792.671,547.739,774.798,531.95,762.011z"/>
</g>
<g>
</g>
<g>
</g>
<g>
</g>
<g>
</g>
<g>
</g>
<g>
</g>
</svg>
