<!DOCTYPE svg PUBLIC "-//W3C//DTD SVG 1.1//EN" "http://www.w3.org/Graphics/SVG/1.1/DTD/svg11.dtd">
<!-- Uploaded to: SVG Repo, www.svgrepo.com, Transformed by: SVG Repo Mixer Tools -->
<svg fill="#000000" width="800px" height="800px" viewBox="0 0 32 32" version="1.1" xmlns="http://www.w3.org/2000/svg">
<g id="SVGRepo_bgCarrier" stroke-width="0"/>
<g id="SVGRepo_tracerCarrier" stroke-linecap="round" stroke-linejoin="round"/>
<g id="SVGRepo_iconCarrier"> <title>arrow-down</title> <path d="M26.885 19.115c-0.227-0.226-0.539-0.366-0.885-0.366s-0.658 0.14-0.885 0.366v0l-7.865 7.867v-24.982c0-0.69-0.56-1.25-1.25-1.25s-1.25 0.56-1.25 1.25v0 24.981l-7.866-7.866c-0.226-0.226-0.539-0.366-0.884-0.366-0.691 0-1.251 0.56-1.251 1.251 0 0.346 0.14 0.658 0.367 0.885v0l10 10c0.012 0.012 0.029 0.016 0.041 0.027 0.103 0.099 0.223 0.18 0.356 0.239l0.008 0.003 0.001 0c0.141 0.060 0.306 0.095 0.478 0.095 0.345 0 0.657-0.139 0.883-0.365l10.001-10c0.225-0.227 0.365-0.54 0.365-0.885s-0.139-0.658-0.365-0.885l0 0z"/> </g>
</svg>