<!DOCTYPE svg PUBLIC "-//W3C//DTD SVG 1.1//EN" "http://www.w3.org/Graphics/SVG/1.1/DTD/svg11.dtd">
<!-- Uploaded to: SVG Repo, www.svgrepo.com, Transformed by: SVG Repo Mixer Tools -->
<svg fill="#ffffff" version="1.1" id="Capa_1" xmlns="http://www.w3.org/2000/svg" xmlns:xlink="http://www.w3.org/1999/xlink" width="800px" height="800px" viewBox="0 0 187.059 187.059" xml:space="preserve">
<g id="SVGRepo_bgCarrier" stroke-width="0"/>
<g id="SVGRepo_tracerCarrier" stroke-linecap="round" stroke-linejoin="round"/>
<g id="SVGRepo_iconCarrier"> <g> <g> <g> <path d="M155.578,48.037c-6.296,7.886-36.133,8.954-45.011,6.309c-8.78-2.618-8.829-15.655-8.921-19.089 c-3.945,9.225-12.114,8.963-16.209,0.018c-0.433,3.745-1.599,16.761-4.622,17.808c-3.023,1.066-23.464,7.895-49.045-5.763 C30.409,49.895,0.28,87.942,0,150.152c0,0,93.636-57.509,187.059,1.65C186.754,138.564,180.75,77.686,155.578,48.037z M89.669,49.846c-0.566,0-1.035-0.463-1.035-1.035c0-0.587,0.469-1.041,1.035-1.041c0.575,0,1.041,0.454,1.041,1.041 C90.71,49.383,90.244,49.846,89.669,49.846z M97.396,49.815c-0.582,0-1.035-0.463-1.035-1.035c0-0.588,0.453-1.041,1.035-1.041 c0.572,0,1.035,0.453,1.035,1.041C98.431,49.353,97.968,49.815,97.396,49.815z"/> </g> </g> </g> </g>
</svg>