<?xml version="1.0" standalone="no"?>
<!DOCTYPE svg PUBLIC "-//W3C//DTD SVG 20010904//EN"
 "http://www.w3.org/TR/2001/REC-SVG-20010904/DTD/svg10.dtd">
<svg version="1.0" xmlns="http://www.w3.org/2000/svg"
 width="4733.000000pt" height="4992.000000pt" viewBox="0 0 4733.000000 4992.000000"
 preserveAspectRatio="xMidYMid meet">

<g transform="translate(0.000000,4992.000000) scale(0.100000,-0.100000)"
fill="#000000" stroke="none">
<path d="M24987 48300 c-313 -28 -611 -112 -793 -222 -520 -314 -1286 -1937
-1847 -3913 -442 -1554 -705 -3070 -777 -4475 -14 -264 -14 -952 0 -1190 49
-850 198 -1493 482 -2080 59 -122 169 -318 228 -405 8 -12 41 -60 73 -107 63
-95 227 -289 346 -411 348 -360 818 -663 1331 -862 143 -55 159 -61 256 -93
298 -101 668 -188 1029 -241 77 -12 163 -26 190 -31 162 -31 153 -19 -25 35
-991 299 -1518 581 -2039 1090 -448 438 -767 951 -957 1539 -274 852 -363
1867 -279 3176 119 1841 434 3475 980 5090 251 741 434 1200 655 1645 178 357
294 534 479 727 298 312 623 486 1144 613 98 24 223 52 278 61 55 10 96 21 92
25 -28 24 -654 46 -846 29z"/>
<path d="M33311 45770 c177 -411 136 -877 -113 -1260 -192 -297 -496 -562
-880 -765 -94 -50 -111 -63 -179 -142 -41 -48 -135 -151 -210 -228 -95 -98
-169 -187 -245 -295 -1110 -1567 -2044 -3271 -2633 -4803 -50 -130 -91 -241
-91 -245 0 -4 23 -21 52 -38 l52 -32 81 212 c216 558 438 1055 746 1666 516
1026 1094 1990 1814 3025 131 188 184 254 291 365 72 74 169 179 217 234 80
91 94 103 204 163 241 133 422 263 587 423 305 296 461 595 497 955 26 252
-39 537 -177 776 -25 44 -47 79 -49 79 -1 0 15 -41 36 -90z"/>
<path d="M41616 36258 c-27 -431 -32 -693 -16 -863 43 -453 207 -727 464 -774
179 -33 372 4 602 115 62 30 118 54 126 54 8 0 22 -8 31 -18 16 -17 15 -22
-16 -69 -36 -58 -119 -184 -148 -225 -10 -15 -19 -29 -19 -32 0 -2 -18 -34
-40 -70 -150 -247 -203 -500 -150 -712 26 -104 101 -253 161 -318 44 -48 114
-95 167 -111 l22 -6 -25 37 c-14 21 -36 69 -48 108 -19 61 -22 92 -21 226 1
238 49 429 169 675 142 293 314 465 479 482 31 3 59 9 61 13 3 5 -59 75 -138
156 -78 82 -155 162 -171 179 l-28 30 -82 -80 c-144 -142 -346 -272 -531 -344
-135 -52 -195 -65 -295 -65 -94 0 -143 18 -191 71 -149 159 -183 646 -73 1031
26 90 79 213 114 262 11 15 20 30 20 33 0 7 -366 277 -407 300 -8 5 -13 -20
-17 -85z"/>
<path d="M43958 36005 c64 -129 110 -292 127 -447 4 -32 8 -58 9 -58 2 0 19
-7 39 -15 l34 -14 -14 74 c-7 41 -25 109 -39 152 -27 85 -132 303 -164 343
-16 19 -14 10 8 -35z"/>
<path d="M45295 34461 c76 -150 131 -346 142 -500 l6 -93 41 -38 c22 -21 42
-37 44 -35 1 1 -4 47 -12 101 -28 185 -93 367 -191 534 -53 90 -68 106 -30 31z"/>
<path d="M18515 33971 c-262 -107 -429 -185 -740 -341 -595 -300 -913 -488
-2250 -1327 -730 -458 -1144 -683 -1490 -808 -142 -51 -424 -126 -550 -146
l-80 -12 -88 -93 c-254 -269 -567 -443 -928 -516 -99 -20 -144 -23 -339 -23
-194 0 -240 3 -337 23 -249 50 -399 121 -543 257 -25 23 -90 66 -145 95 -89
46 -310 188 -420 270 l-40 29 -85 -26 c-76 -24 -101 -27 -240 -27 -140 0 -164
3 -245 28 -119 36 -228 94 -317 169 l-73 61 51 -64 c103 -130 266 -240 429
-289 162 -49 372 -44 531 13 l42 14 68 -50 c112 -83 282 -192 394 -254 58 -32
130 -80 160 -108 149 -134 325 -210 580 -250 281 -44 564 -22 832 64 127 41
333 146 448 227 52 38 153 126 224 196 l129 128 109 20 c322 58 595 152 942
326 309 155 568 308 1306 771 1297 816 1894 1151 2560 1437 l145 63 53 101
c29 55 51 101 50 100 -2 0 -66 -26 -143 -58z"/>
<path d="M45970 33209 c184 -364 188 -791 13 -1144 -147 -295 -425 -552 -800
-740 l-129 -64 -109 -122 c-133 -148 -355 -357 -565 -532 -980 -816 -2548
-1683 -4360 -2412 -1085 -436 -2220 -805 -3292 -1071 l-238 -59 0 -55 c0 -92
-29 -395 -55 -578 -195 -1353 -823 -2634 -1890 -3857 -172 -196 -687 -716
-885 -891 -600 -533 -1224 -997 -2025 -1506 -213 -135 -751 -460 -975 -589
l-95 -54 -11 -127 c-14 -157 -27 -233 -64 -374 -155 -601 -604 -1214 -1329
-1818 -532 -443 -1207 -892 -2006 -1336 -132 -73 -242 -134 -244 -136 -2 -2
40 -103 92 -226 808 -1886 1378 -4213 1642 -6700 156 -1474 183 -3029 70
-4073 -93 -853 -247 -1305 -602 -1760 -410 -526 -1081 -924 -1893 -1121 -143
-35 -160 -42 -219 -85 -455 -335 -1161 -413 -1688 -187 l-92 39 -68 -20 c-38
-11 -123 -30 -189 -42 -159 -29 -473 -32 -644 -6 -349 53 -653 174 -889 353
-105 79 -115 84 -211 109 -317 80 -629 260 -899 519 l-74 71 77 -92 c249 -295
691 -566 1033 -633 51 -10 73 -22 137 -75 217 -176 522 -306 861 -366 111 -20
164 -23 365 -23 252 -1 345 10 518 60 l83 24 47 -24 c164 -83 394 -135 627
-143 414 -14 812 101 1101 319 44 33 72 43 213 78 479 118 914 305 1276 550
222 150 484 397 637 600 280 373 426 734 518 1281 183 1089 173 2855 -26 4664
-266 2417 -843 4739 -1634 6570 -45 105 -84 195 -86 201 -3 6 19 23 48 39 887
476 1715 1025 2298 1525 808 694 1264 1435 1297 2111 l6 125 86 49 c47 27 203
118 346 203 1124 669 1917 1233 2665 1896 197 175 723 704 895 901 1187 1361
1825 2786 1936 4320 6 88 13 162 15 164 2 2 142 39 311 81 2614 660 5339 1843
7048 3060 423 301 826 649 1085 935 107 118 116 125 207 169 235 114 421 245
578 407 190 197 287 368 352 617 25 96 27 124 28 272 0 124 -5 186 -19 250
-23 108 -77 263 -123 354 -39 79 -113 206 -119 206 -2 0 14 -36 36 -81z"/>
<path d="M11983 33240 c45 -40 121 -139 113 -148 -2 -2 -46 8 -97 22 -166 45
-280 59 -474 60 -238 0 -373 -25 -557 -104 -254 -109 -476 -328 -617 -607 -37
-75 -101 -225 -101 -239 0 -3 18 17 40 45 53 67 108 106 171 121 122 30 240
-20 469 -197 307 -237 411 -306 571 -382 143 -68 221 -85 356 -79 77 4 124 11
163 27 l55 21 -40 -35 c-61 -54 -130 -96 -197 -120 l-61 -22 48 -12 c79 -20
220 -29 318 -20 316 29 568 217 739 550 l43 84 -1 120 c-1 110 -4 129 -37 227
-80 238 -203 416 -378 547 -146 111 -292 165 -478 177 l-96 7 48 -43z"/>
<path d="M43511 33136 l-54 -11 -52 -101 c-61 -121 -109 -239 -138 -343 -17
-62 -21 -105 -21 -236 -1 -141 2 -169 23 -235 41 -131 111 -236 204 -308 70
-54 210 -91 342 -92 219 -1 648 95 684 152 12 19 11 20 -6 13 -46 -18 -252
-66 -355 -81 -155 -24 -379 -24 -480 -1 -139 32 -215 106 -261 251 -31 100
-30 324 2 475 30 142 83 296 145 424 58 117 59 113 -33 93z"/>
<path d="M16789 28500 c-246 -45 -418 -122 -562 -250 -54 -48 -208 -241 -348
-435 -236 -329 -682 -1045 -650 -1045 6 0 56 -5 113 -11 117 -13 212 -48 475
-174 646 -310 1170 -740 1487 -1220 225 -341 367 -692 450 -1115 46 -234 60
-393 60 -675 -1 -250 -7 -330 -49 -605 -9 -65 63 164 89 281 45 201 59 366 53
614 -3 121 -12 263 -21 316 -22 140 -34 272 -51 579 -37 659 -86 899 -238
1163 -184 320 -250 519 -250 757 0 96 5 144 22 205 100 375 435 638 934 732
144 27 447 25 594 -5 140 -28 293 -80 398 -136 96 -51 509 -307 837 -518 753
-485 1312 -913 1703 -1303 280 -279 1048 -1179 1659 -1943 410 -514 656 -838
926 -1222 163 -233 266 -358 429 -520 609 -608 1399 -940 2656 -1116 137 -19
331 -46 430 -60 99 -13 247 -38 329 -55 283 -56 189 -28 -457 141 -836 217
-1244 356 -1695 576 -495 240 -849 490 -1199 845 -331 337 -523 609 -788 1120
-135 260 -228 419 -373 638 -843 1274 -2416 2663 -4043 3570 -889 497 -1740
811 -2381 880 -149 17 -426 12 -539 -9z"/>
<path d="M3660 24429 c-105 -12 -241 -53 -334 -100 -311 -156 -551 -496 -671
-951 -71 -274 -94 -490 -104 -1013 -8 -399 -8 -414 15 -570 153 -1055 624
-2274 1114 -2884 190 -236 386 -360 683 -431 75 -18 79 -18 145 0 160 44 351
148 520 281 84 66 111 94 165 176 101 150 236 307 298 345 24 15 115 157 192
301 149 276 307 699 398 1064 l42 168 1 335 c1 360 -10 496 -60 770 -172 945
-656 1727 -1358 2195 -362 241 -734 353 -1046 314z"/>
<path d="M15120 21353 c-605 -63 -1095 -133 -1647 -234 l-63 -11 0 -73 c0
-169 30 -558 44 -573 3 -3 48 11 99 31 239 95 618 207 869 257 55 11 61 15
122 88 164 196 366 362 586 481 75 41 75 43 -10 34z"/>
<path d="M28438 20703 c7 -3 16 -2 19 1 4 3 -2 6 -13 5 -11 0 -14 -3 -6 -6z"/>
<path d="M29057 20471 c102 -54 247 -151 320 -213 81 -70 91 -74 23 -8 -78 74
-212 166 -332 226 -118 59 -126 56 -11 -5z"/>
<path d="M9720 19211 c-500 -170 -815 -282 -1335 -476 -526 -196 -1254 -480
-1266 -493 -4 -4 32 -25 80 -48 l86 -40 315 123 c643 253 1561 591 2085 769
l200 68 145 120 c168 139 165 136 160 135 -3 0 -214 -71 -470 -158z"/>
<path d="M19400 18705 c-128 -18 -255 -47 -375 -85 -104 -34 -211 -78 -204
-84 2 -2 45 7 94 19 132 33 373 73 527 86 167 14 292 3 544 -47 271 -54 455
-118 704 -244 235 -120 379 -221 630 -441 510 -448 821 -876 1048 -1444 116
-289 187 -525 257 -853 46 -214 63 -277 64 -237 1 44 -101 615 -134 749 -73
296 -172 545 -341 853 -88 161 -328 543 -354 563 -3 3 -19 23 -36 45 -136 185
-376 438 -546 574 -114 91 -331 234 -442 290 -261 133 -579 228 -871 261 -124
14 -450 11 -565 -5z"/>
<path d="M3110 18226 c36 -43 102 -118 147 -165 65 -69 84 -84 94 -74 10 10 4
20 -32 49 -24 20 -96 89 -159 153 -109 111 -112 112 -50 37z"/>
<path d="M17360 18047 c0 -3 39 -36 88 -74 281 -225 501 -558 606 -918 l14
-50 -5 55 -5 56 108 34 c106 34 113 35 269 34 180 -1 261 -15 495 -85 485
-146 917 -382 1347 -736 173 -143 539 -512 702 -708 325 -390 663 -871 928
-1315 238 -400 405 -717 743 -1406 406 -828 742 -1496 757 -1501 8 -3 17 -3
20 1 11 10 -70 202 -199 471 -66 138 -147 315 -180 395 -189 456 -369 852
-597 1315 l-158 320 -41 223 c-23 122 -49 236 -57 253 -9 16 -47 78 -85 137
l-69 106 5 -44 c10 -87 46 -251 73 -340 16 -49 26 -90 22 -90 -3 0 -26 35 -50
78 -224 391 -674 1052 -946 1392 -626 780 -1449 1339 -2270 1541 -159 39 -344
69 -427 69 -38 0 -68 3 -68 8 0 4 20 20 45 36 25 15 44 30 42 32 -2 2 -36 0
-75 -5 -49 -6 -89 -19 -125 -39 -28 -16 -79 -37 -112 -47 -33 -9 -72 -23 -87
-31 l-26 -14 -22 68 c-52 162 -154 333 -294 494 -84 96 -215 214 -280 251 -42
25 -86 42 -86 34z"/>
<path d="M12474 16285 c-306 -69 -600 -267 -701 -471 -33 -67 -38 -87 -38
-145 0 -59 4 -73 30 -110 119 -170 449 -168 790 3 285 143 480 392 435 557
-15 57 -77 123 -143 152 -44 20 -71 24 -182 26 -83 1 -152 -3 -191 -12z m-166
-550 c33 -39 25 -86 -25 -138 -51 -53 -105 -77 -176 -77 -52 0 -62 3 -89 30
-25 25 -29 36 -24 61 17 87 135 164 240 155 39 -3 55 -9 74 -31z"/>
<path d="M10612 15504 c-62 -16 -152 -67 -231 -129 -92 -73 -145 -153 -182
-274 -38 -127 -14 -272 71 -441 110 -219 316 -413 600 -567 158 -86 399 -163
555 -178 l70 -6 -73 40 c-222 124 -489 354 -601 519 -58 86 -106 191 -132 287
-30 114 -38 383 -15 510 15 77 45 196 63 241 7 19 -54 18 -125 -2z"/>
<path d="M18951 15139 c-127 -25 -302 -102 -416 -184 -71 -50 -170 -154 -192
-200 -48 -101 49 -144 320 -145 256 0 536 53 702 134 160 78 195 147 113 223
-160 146 -347 207 -527 172z"/>
<path d="M17873 14882 c-101 -101 -148 -174 -164 -255 -25 -121 33 -209 185
-282 78 -37 227 -85 266 -85 7 0 -24 18 -68 40 -98 49 -170 123 -203 208 -17
45 -22 77 -22 152 0 107 20 173 78 260 19 28 30 50 25 50 -5 0 -49 -40 -97
-88z"/>
<path d="M18880 14264 c-152 -18 -165 -21 -100 -23 67 -1 229 18 250 30 20 11
-7 10 -150 -7z"/>
<path d="M970 14180 c41 -60 181 -191 305 -286 624 -475 1390 -791 2155 -888
325 -42 764 -46 1060 -11 679 80 1242 281 1857 662 84 51 155 98 158 104 6 9
-11 149 -19 156 -2 2 -59 -32 -127 -75 -635 -406 -1219 -628 -1874 -712 -1081
-138 -2170 120 -3090 733 -118 79 -304 221 -385 294 -54 49 -61 52 -40 23z"/>
<path d="M15130 11355 c-265 -53 -548 -241 -637 -423 -49 -100 -40 -208 23
-263 188 -166 678 -44 939 232 143 152 170 294 75 389 -73 73 -232 99 -400 65z
m-166 -486 c81 -63 -38 -199 -174 -199 -41 0 -56 5 -75 25 -31 30 -31 57 -4
102 49 79 192 120 253 72z"/>
<path d="M21580 10939 c-57 -42 -185 -173 -310 -319 -244 -283 -346 -476 -357
-675 -4 -80 -2 -95 19 -135 49 -96 161 -136 348 -127 116 6 184 19 196 38 4 6
-11 8 -43 3 -68 -9 -187 11 -251 42 -74 36 -103 87 -109 198 -9 138 30 273
125 435 47 81 71 114 172 236 80 96 263 335 257 335 -2 0 -23 -14 -47 -31z"/>
<path d="M22243 10926 c-127 -41 -245 -119 -440 -288 -191 -167 -334 -355
-333 -440 1 -50 20 -67 90 -80 151 -26 434 57 615 182 166 114 255 293 255
514 0 90 -4 103 -41 121 -37 20 -61 18 -146 -9z"/>
<path d="M13490 10696 c-66 -19 -82 -29 -147 -101 -67 -72 -118 -161 -139
-239 -29 -108 -11 -246 44 -350 34 -65 170 -201 245 -245 66 -39 228 -96 301
-106 l48 -7 -68 69 c-82 82 -141 182 -185 313 -65 192 -46 412 56 663 6 15 1
17 -51 16 -33 0 -79 -6 -104 -13z"/>
<path d="M8045 10550 c10 -11 20 -20 23 -20 3 0 -3 9 -13 20 -10 11 -20 20
-23 20 -3 0 3 -9 13 -20z"/>
<path d="M8090 10495 c13 -14 26 -25 28 -25 3 0 -5 11 -18 25 -13 14 -26 25
-28 25 -3 0 5 -11 18 -25z"/>
<path d="M8171 10400 c198 -241 537 -584 779 -787 133 -113 159 -128 160 -92
0 4 -55 51 -122 105 -277 222 -496 431 -802 764 -67 73 -67 73 -15 10z"/>
<path d="M11693 9278 c3 -7 30 -71 60 -143 55 -128 56 -132 62 -255 7 -131 -5
-285 -31 -399 -14 -62 -14 -65 11 -127 118 -296 121 -611 9 -943 -107 -316
-267 -574 -504 -811 -162 -163 -359 -315 -559 -432 -36 -21 -63 -38 -59 -38 4
0 49 15 100 34 537 197 899 513 1094 955 176 401 248 1172 163 1766 -18 131
-62 351 -71 360 -3 3 -259 45 -276 45 -2 0 -2 -6 1 -12z"/>
<path d="M14373 8409 c-116 -5 -379 -17 -585 -29 -205 -11 -480 -23 -610 -27
l-238 -6 0 -116 c0 -305 -56 -757 -131 -1053 -61 -243 -179 -523 -304 -723
-135 -214 -357 -464 -555 -623 -300 -242 -708 -448 -1105 -557 -588 -161
-1240 -188 -1885 -79 -316 53 -572 128 -935 274 -405 162 -575 259 -770 440
l-59 55 34 -45 c127 -165 367 -346 605 -455 149 -68 489 -202 632 -249 876
-286 1916 -279 2723 19 545 201 975 512 1285 929 104 140 148 213 234 384 120
240 192 471 245 792 38 229 54 378 68 643 l12 237 41 0 c72 0 513 20 880 40
963 53 1773 48 2524 -14 l144 -12 32 51 c22 33 29 52 21 56 -25 14 -570 53
-951 69 -276 11 -1040 11 -1352 -1z"/>
<path d="M20795 7783 c-122 -19 -635 -28 -794 -14 l-125 10 -65 -51 c-813
-634 -1645 -1068 -2209 -1153 -352 -53 -672 34 -896 244 l-60 56 34 -47 c49
-70 165 -179 247 -232 191 -123 431 -179 676 -156 546 52 1348 448 2179 1078
l178 134 217 -12 c227 -13 465 -9 640 11 114 13 113 12 113 102 0 54 9 52
-135 30z"/>
<path d="M8650 6780 c-27 -15 -281 -97 -373 -120 -49 -12 -134 -30 -190 -40
l-102 -18 102 -1 c209 -2 510 55 748 142 l60 22 -80 12 c-98 14 -145 15 -165
3z"/>
</g>
</svg>
